#N canvas 0 22 479 303 10;
#X obj 187 29 loadbang;
#X obj 187 249 outlet;
#X obj 187 205 pack f f f f;
#X obj 98 125 inlet;
#X obj 143 125 inlet;
#X obj 310 123 float \$1;
#X obj 383 122 float \$2;
#X obj 187 65 trigger b b b b;
#X obj 187 123 float 10;
#X obj 249 123 float 10;
#X connect 0 0 7 0;
#X connect 2 0 1 0;
#X connect 3 0 2 2;
#X connect 4 0 2 3;
#X connect 5 0 2 2;
#X connect 6 0 2 3;
#X connect 7 0 8 0;
#X connect 7 1 9 0;
#X connect 7 2 5 0;
#X connect 7 3 6 0;
#X connect 8 0 2 0;
#X connect 9 0 2 1;
