#N canvas 30 162 450 300 10;
#X obj 194 233 outlet~;
#X obj 128 66 inlet~;
#X obj 174 66 inlet~;
#X obj 220 66 inlet~;
#X obj 266 66 inlet~;
#X obj 176 140 *~;
#X obj 217 139 *~;
#X obj 194 187 +~;
#X connect 1 0 5 0;
#X connect 2 0 5 1;
#X connect 3 0 6 0;
#X connect 4 0 6 1;
#X connect 5 0 7 0;
#X connect 6 0 7 1;
#X connect 7 0 0 0;
