#N canvas 552 59 835 616 10;
#X obj 256 508 outlet~;
#X obj 256 460 mult;
#X obj 78 350 vSplit 230 240;
#X obj 78 297 inlet;
#N canvas 496 94 649 610 voice1 0;
#X floatatom 124 497 5 0 0 0 - - -;
#X text 226 421 Get the audio representation;
#X obj 179 532 osc~;
#X obj 179 565 outlet~;
#X obj 179 499 change;
#X obj 179 468 mtof;
#X obj 179 410 * 60;
#X obj 179 437 + 30;
#X obj 179 154 inlet;
#X obj 179 240 float;
#X obj 212 188 tgl 15 1 empty empty empty 17 7 0 10 -262144 -1 -1 1
1;
#X obj 194 117 keyname;
#X obj 179 208 spigot;
#X obj 179 276 diff;
#X obj 233 152 sel a;
#X obj 179 305 abs;
#X obj 199 330 > 0.01;
#X obj 329 80 keyname;
#X obj 368 154 sel Right Left;
#X obj 368 189 tgl 15 0 empty empty empty 17 7 0 10 -262144 -1 -1 0
1;
#X obj 449 189 tgl 15 0 empty empty empty 17 7 0 10 -262144 -1 -1 0
1;
#X obj 420 265 line 0 100;
#X obj 409 311 hsl 128 15 0 0.1 0 0 empty empty empty -2 -8 0 10 -262144
-1 -1 12700 1;
#X floatatom 413 345 5 0 0 0 - - -;
#X floatatom 127 346 5 0 0 0 - - -;
#X obj 237 221 s hold1;
#X obj 442 289 s freq1;
#X obj 400 22 r opt;
#X floatatom 400 52 5 0 0 0 - - -;
#X obj 368 113 spigot;
#X msg 445 81 1;
#X msg 486 82 0;
#X obj 455 46 sel 0;
#X obj 179 376 spigot;
#X msg 449 223 0 10000;
#X text 159 82 Uses key to hold \; oscillator freq. \;;
#X text 475 152 Logic for colored \; rectangles. Uses LEFT \; and RIGHT
arrows.;
#X text 226 437 Scale to different midi range.;
#X text 226 469 Change from midi to frequency.;
#X text 214 266 Looks for larger \; changes by only taking \; diff
of change. \;;
#X text 499 277 Sends to colored \; rectangles. \;;
#X text 232 353 Limits the amount of \; frequency change. The higher
\; the number the less frequent changes. \;;
#X msg 368 222 0.1 10000;
#X connect 2 0 3 0;
#X connect 4 0 2 0;
#X connect 5 0 0 0;
#X connect 5 0 4 0;
#X connect 6 0 7 0;
#X connect 7 0 5 0;
#X connect 8 0 12 0;
#X connect 9 0 13 0;
#X connect 10 0 12 1;
#X connect 10 0 25 0;
#X connect 11 1 14 0;
#X connect 12 0 9 0;
#X connect 13 0 15 0;
#X connect 14 0 10 0;
#X connect 15 0 16 0;
#X connect 15 0 33 0;
#X connect 15 0 24 0;
#X connect 16 0 33 1;
#X connect 17 1 29 0;
#X connect 18 0 19 0;
#X connect 18 1 20 0;
#X connect 19 0 42 0;
#X connect 20 0 34 0;
#X connect 21 0 22 0;
#X connect 21 0 26 0;
#X connect 22 0 23 0;
#X connect 22 0 16 1;
#X connect 27 0 28 0;
#X connect 27 0 32 0;
#X connect 29 0 18 0;
#X connect 30 0 29 1;
#X connect 31 0 29 1;
#X connect 32 0 30 0;
#X connect 32 1 31 0;
#X connect 33 0 6 0;
#X connect 34 0 21 0;
#X connect 42 0 21 0;
#X restore 78 408 pd voice1;
#N canvas 586 25 669 635 voice2 0;
#X floatatom 144 517 5 0 0 0 - - -;
#X text 246 441 Get the audio representation;
#X obj 199 552 osc~;
#X obj 199 585 outlet~;
#X obj 199 519 change;
#X obj 199 488 mtof;
#X obj 199 430 * 60;
#X obj 199 457 + 30;
#X obj 199 174 inlet;
#X obj 199 260 float;
#X obj 232 208 tgl 15 1 empty empty empty 17 7 0 10 -262144 -1 -1 1
1;
#X obj 214 137 keyname;
#X obj 199 228 spigot;
#X obj 199 296 diff;
#X obj 199 325 abs;
#X obj 219 350 > 0.01;
#X obj 349 100 keyname;
#X obj 388 174 sel Right Left;
#X obj 388 209 tgl 15 0 empty empty empty 17 7 0 10 -262144 -1 -1 0
1;
#X obj 469 209 tgl 15 0 empty empty empty 17 7 0 10 -262144 -1 -1 0
1;
#X obj 440 285 line 0 100;
#X obj 429 331 hsl 128 15 0 0.1 0 0 empty empty empty -2 -8 0 10 -262144
-1 -1 12700 1;
#X floatatom 433 365 5 0 0 0 - - -;
#X floatatom 147 366 5 0 0 0 - - -;
#X obj 420 42 r opt;
#X floatatom 420 72 5 0 0 0 - - -;
#X obj 388 133 spigot;
#X msg 465 101 1;
#X msg 506 102 0;
#X obj 199 396 spigot;
#X msg 469 243 0 10000;
#X text 179 102 Uses key to hold \; oscillator freq. \;;
#X text 495 172 Logic for colored \; rectangles. Uses LEFT \; and RIGHT
arrows.;
#X text 246 457 Scale to different midi range.;
#X text 246 489 Change from midi to frequency.;
#X text 234 286 Looks for larger \; changes by only taking \; diff
of change. \;;
#X text 519 297 Sends to colored \; rectangles. \;;
#X text 252 373 Limits the amount of \; frequency change. The higher
\; the number the less frequent changes. \;;
#X msg 388 242 0.1 10000;
#X obj 253 172 sel s;
#X obj 257 241 s hold2;
#X obj 475 66 sel 1;
#X obj 462 309 s freq2;
#X connect 2 0 3 0;
#X connect 4 0 2 0;
#X connect 5 0 0 0;
#X connect 5 0 4 0;
#X connect 6 0 7 0;
#X connect 7 0 5 0;
#X connect 8 0 12 0;
#X connect 9 0 13 0;
#X connect 10 0 12 1;
#X connect 10 0 40 0;
#X connect 11 1 39 0;
#X connect 12 0 9 0;
#X connect 13 0 14 0;
#X connect 14 0 15 0;
#X connect 14 0 29 0;
#X connect 14 0 23 0;
#X connect 15 0 29 1;
#X connect 16 1 26 0;
#X connect 17 0 18 0;
#X connect 17 1 19 0;
#X connect 18 0 38 0;
#X connect 19 0 30 0;
#X connect 20 0 21 0;
#X connect 20 0 42 0;
#X connect 21 0 22 0;
#X connect 21 0 15 1;
#X connect 24 0 25 0;
#X connect 24 0 41 0;
#X connect 26 0 17 0;
#X connect 27 0 26 1;
#X connect 28 0 26 1;
#X connect 29 0 6 0;
#X connect 30 0 20 0;
#X connect 38 0 20 0;
#X connect 39 0 10 0;
#X connect 41 0 27 0;
#X connect 41 1 28 0;
#X restore 174 407 pd voice2;
#N canvas 578 37 672 660 voice3 0;
#X floatatom 154 527 5 0 0 0 - - -;
#X text 256 451 Get the audio representation;
#X obj 209 562 osc~;
#X obj 209 595 outlet~;
#X obj 209 529 change;
#X obj 209 498 mtof;
#X obj 209 440 * 60;
#X obj 209 467 + 30;
#X obj 209 184 inlet;
#X obj 209 270 float;
#X obj 242 218 tgl 15 1 empty empty empty 17 7 0 10 -262144 -1 -1 1
1;
#X obj 224 147 keyname;
#X obj 209 238 spigot;
#X obj 209 306 diff;
#X obj 209 335 abs;
#X obj 229 360 > 0.01;
#X obj 359 110 keyname;
#X obj 398 184 sel Right Left;
#X obj 398 219 tgl 15 0 empty empty empty 17 7 0 10 -262144 -1 -1 0
1;
#X obj 479 219 tgl 15 0 empty empty empty 17 7 0 10 -262144 -1 -1 0
1;
#X obj 450 295 line 0 100;
#X obj 439 341 hsl 128 15 0 0.1 0 0 empty empty empty -2 -8 0 10 -262144
-1 -1 12700 1;
#X floatatom 443 375 5 0 0 0 - - -;
#X floatatom 157 376 5 0 0 0 - - -;
#X obj 430 52 r opt;
#X floatatom 430 82 5 0 0 0 - - -;
#X obj 398 143 spigot;
#X msg 475 111 1;
#X msg 516 112 0;
#X obj 209 406 spigot;
#X msg 479 253 0 10000;
#X text 189 112 Uses key to hold \; oscillator freq. \;;
#X text 505 182 Logic for colored \; rectangles. Uses LEFT \; and RIGHT
arrows.;
#X text 256 467 Scale to different midi range.;
#X text 256 499 Change from midi to frequency.;
#X text 244 296 Looks for larger \; changes by only taking \; diff
of change. \;;
#X text 529 307 Sends to colored \; rectangles. \;;
#X text 262 383 Limits the amount of \; frequency change. The higher
\; the number the less frequent changes. \;;
#X msg 398 252 0.1 10000;
#X obj 485 76 sel 2;
#X obj 263 182 sel d;
#X obj 267 251 s hold3;
#X obj 472 319 s freq3;
#X connect 2 0 3 0;
#X connect 4 0 2 0;
#X connect 5 0 0 0;
#X connect 5 0 4 0;
#X connect 6 0 7 0;
#X connect 7 0 5 0;
#X connect 8 0 12 0;
#X connect 9 0 13 0;
#X connect 10 0 12 1;
#X connect 10 0 41 0;
#X connect 11 1 40 0;
#X connect 12 0 9 0;
#X connect 13 0 14 0;
#X connect 14 0 15 0;
#X connect 14 0 29 0;
#X connect 14 0 23 0;
#X connect 15 0 29 1;
#X connect 16 1 26 0;
#X connect 17 0 18 0;
#X connect 17 1 19 0;
#X connect 18 0 38 0;
#X connect 19 0 30 0;
#X connect 20 0 21 0;
#X connect 20 0 42 0;
#X connect 21 0 22 0;
#X connect 21 0 15 1;
#X connect 24 0 25 0;
#X connect 24 0 39 0;
#X connect 26 0 17 0;
#X connect 27 0 26 1;
#X connect 28 0 26 1;
#X connect 29 0 6 0;
#X connect 30 0 20 0;
#X connect 38 0 20 0;
#X connect 39 0 27 0;
#X connect 39 1 28 0;
#X connect 40 0 10 0;
#X restore 269 407 pd voice3;
#X obj 205 47 r hold1;
#X obj 257 47 r hold2;
#X obj 309 47 r hold3;
#X obj 361 47 r hold4;
#X obj 173 106 tgl 30 1 empty empty empty 17 7 0 10 -261234 -1 -1 1
1;
#X obj 209 106 tgl 30 1 empty empty empty 17 7 0 10 -261682 -1 -1 1
1;
#X obj 245 106 tgl 30 1 empty empty empty 17 7 0 10 -262130 -1 -1 1
1;
#X obj 280 105 tgl 30 1 empty empty empty 17 7 0 10 -204786 -1 -1 1
1;
#N canvas 537 31 721 655 voice4 0;
#X floatatom 164 537 5 0 0 0 - - -;
#X text 266 461 Get the audio representation;
#X obj 219 572 osc~;
#X obj 219 605 outlet~;
#X obj 219 539 change;
#X obj 219 508 mtof;
#X obj 219 450 * 60;
#X obj 219 477 + 30;
#X obj 219 194 inlet;
#X obj 219 280 float;
#X obj 252 228 tgl 15 1 empty empty empty 17 7 0 10 -262144 -1 -1 1
1;
#X obj 234 157 keyname;
#X obj 219 248 spigot;
#X obj 219 316 diff;
#X obj 219 345 abs;
#X obj 239 370 > 0.01;
#X obj 369 120 keyname;
#X obj 408 194 sel Right Left;
#X obj 408 229 tgl 15 0 empty empty empty 17 7 0 10 -262144 -1 -1 0
1;
#X obj 489 229 tgl 15 0 empty empty empty 17 7 0 10 -262144 -1 -1 0
1;
#X obj 460 305 line 0 100;
#X obj 449 351 hsl 128 15 0 0.1 0 0 empty empty empty -2 -8 0 10 -262144
-1 -1 12700 1;
#X floatatom 453 385 5 0 0 0 - - -;
#X floatatom 167 386 5 0 0 0 - - -;
#X obj 440 62 r opt;
#X floatatom 440 92 5 0 0 0 - - -;
#X obj 408 153 spigot;
#X msg 485 121 1;
#X msg 526 122 0;
#X obj 219 416 spigot;
#X msg 489 263 0 10000;
#X text 199 122 Uses key to hold \; oscillator freq. \;;
#X text 515 192 Logic for colored \; rectangles. Uses LEFT \; and RIGHT
arrows.;
#X text 266 477 Scale to different midi range.;
#X text 266 509 Change from midi to frequency.;
#X text 254 306 Looks for larger \; changes by only taking \; diff
of change. \;;
#X text 539 317 Sends to colored \; rectangles. \;;
#X text 272 393 Limits the amount of \; frequency change. The higher
\; the number the less frequent changes. \;;
#X msg 408 262 0.1 10000;
#X obj 495 86 sel 3;
#X obj 482 329 s freq4;
#X obj 277 261 s hold4;
#X obj 273 192 sel f;
#X connect 2 0 3 0;
#X connect 4 0 2 0;
#X connect 5 0 0 0;
#X connect 5 0 4 0;
#X connect 6 0 7 0;
#X connect 7 0 5 0;
#X connect 8 0 12 0;
#X connect 9 0 13 0;
#X connect 10 0 12 1;
#X connect 10 0 41 0;
#X connect 11 1 42 0;
#X connect 12 0 9 0;
#X connect 13 0 14 0;
#X connect 14 0 15 0;
#X connect 14 0 29 0;
#X connect 14 0 23 0;
#X connect 15 0 29 1;
#X connect 16 1 26 0;
#X connect 17 0 18 0;
#X connect 17 1 19 0;
#X connect 18 0 38 0;
#X connect 19 0 30 0;
#X connect 20 0 21 0;
#X connect 20 0 40 0;
#X connect 21 0 22 0;
#X connect 21 0 15 1;
#X connect 24 0 25 0;
#X connect 24 0 39 0;
#X connect 26 0 17 0;
#X connect 27 0 26 1;
#X connect 28 0 26 1;
#X connect 29 0 6 0;
#X connect 30 0 20 0;
#X connect 38 0 20 0;
#X connect 39 0 27 0;
#X connect 39 1 28 0;
#X connect 42 0 10 0;
#X restore 365 408 pd voice4;
#X obj 208 143 hsl 100 20 0 0.1 0 1 empty empty empty -2 -8 0 10 -261234
-1 -1 9900 1;
#X obj 207 168 hsl 100 20 0 0.1 0 1 empty empty empty -2 -8 0 10 -261682
-1 -1 9900 1;
#X obj 207 194 hsl 100 20 0 0.1 0 1 empty empty empty -2 -8 0 10 -262130
-1 -1 9900 1;
#X obj 207 220 hsl 100 20 0 0.1 0 1 empty empty empty -2 -8 0 10 -204786
-1 -1 9900 1;
#X obj 173 141 vradio 25 1 0 4 empty empty empty 0 -8 0 10 -262144
-1 -1 0;
#X obj 88 137 r freq2;
#X obj 89 171 r freq3;
#X obj 89 202 r freq4;
#X obj 89 103 r freq1;
#X floatatom 187 282 5 0 0 0 - - -;
#X obj 233 281 s opt;
#N canvas 467 53 478 595 opt-chooser 0;
#X obj 61 28 keyname;
#X obj 100 65 sel Up Down;
#X obj 100 169 count 4;
#X floatatom 100 274 5 0 0 0 - - -;
#X obj 100 239 abs;
#X obj 100 95 tgl 15 0 empty empty empty 17 7 0 10 -262144 -1 -1 0
1;
#X obj 131 95 tgl 15 0 empty empty empty 17 7 0 10 -262144 -1 -1 0
1;
#X obj 100 126 sel 1;
#X obj 100 508 outlet;
#X obj 154 169 count 4;
#X floatatom 154 275 5 0 0 0 - - -;
#X obj 100 202 - 3;
#X obj 216 131 keyname;
#X obj 255 154 sel Up Down;
#X floatatom 286 273 5 0 0 0 - - -;
#X obj 286 205 swap 1;
#X obj 347 205 swap 0;
#X obj 100 343 spigot;
#X floatatom 100 408 5 0 0 0 - - -;
#X obj 248 312 keyname;
#X obj 287 335 sel Up Down;
#X floatatom 318 454 5 0 0 0 - - -;
#X obj 154 344 spigot;
#X obj 318 386 swap 0;
#X obj 379 386 swap 1;
#X connect 0 1 1 0;
#X connect 1 0 5 0;
#X connect 1 1 6 0;
#X connect 2 0 11 0;
#X connect 3 0 17 0;
#X connect 4 0 3 0;
#X connect 5 0 7 0;
#X connect 6 0 7 0;
#X connect 7 0 2 0;
#X connect 7 0 9 0;
#X connect 9 0 10 0;
#X connect 10 0 22 0;
#X connect 11 0 4 0;
#X connect 12 1 13 0;
#X connect 13 0 15 0;
#X connect 13 1 16 0;
#X connect 14 0 17 1;
#X connect 15 0 14 0;
#X connect 16 0 14 0;
#X connect 17 0 18 0;
#X connect 18 0 8 0;
#X connect 19 1 20 0;
#X connect 20 0 23 0;
#X connect 20 1 24 0;
#X connect 21 0 22 1;
#X connect 22 0 18 0;
#X connect 23 0 21 0;
#X connect 24 0 21 0;
#X restore 105 47 pd opt-chooser;
#X floatatom 38 92 5 0 0 0 - - -;
#X text 274 282 Sends radio box option to voice1-4;
#X text 465 347 vSplit splits the candle video into \; four regions
\, taking the dimmensions \; as arguments \;;
#X text 298 460 Mult multiplies the signal from the four oscillators
together.;
#X text 368 89 Musical interface: the colored squares \; (condtrolled
by holding the A S D and F keys) \; are used to hold the frequencey
of one of the \; four oscillators. \; \; the colored rectangles (controlled
with the LEFT \; and RIGHT arrow key) are used to change how \; frequent
an oscillator changes frequency. \; \; the radio box (controlled using
the UP and DOWN \; arrow keys) are used to switch between which \;
colored rectangle you want to affect. \;;
#X text 88 12 Logic to loop radio \; box chooser. \;;
#X text 434 407 Four oscillators for the four split regions.;
#X obj 174 350 vSplit 240 240;
#X obj 269 350 vSplit 230 200;
#X obj 365 350 vSplit 240 200;
#X connect 1 0 0 0;
#X connect 2 0 4 0;
#X connect 3 0 2 0;
#X connect 3 0 35 0;
#X connect 3 0 36 0;
#X connect 3 0 37 0;
#X connect 4 0 1 0;
#X connect 5 0 1 1;
#X connect 6 0 1 2;
#X connect 7 0 11 0;
#X connect 8 0 12 0;
#X connect 9 0 13 0;
#X connect 10 0 14 0;
#X connect 15 0 1 3;
#X connect 20 0 25 0;
#X connect 20 0 26 0;
#X connect 21 0 17 0;
#X connect 22 0 18 0;
#X connect 23 0 19 0;
#X connect 24 0 16 0;
#X connect 27 0 20 0;
#X connect 27 0 28 0;
#X connect 35 0 5 0;
#X connect 36 0 6 0;
#X connect 37 0 15 0;
#X coords 0 -1 1 1 180 170 1 150 80;
