#N canvas 74 81 541 544 10;
#X obj 145 239 pix_blob;
#X floatatom 160 273 5 0 0 0 - - -;
#X floatatom 200 274 5 0 0 0 - - -;
#X floatatom 241 274 5 0 0 0 - - -;
#X obj 145 57 inlet;
#X obj 145 205 pix_crop;
#X floatatom 205 57 5 0 0 0 - - -;
#X floatatom 292 56 5 0 0 0 - - -;
#X text 206 38 offX;
#X text 290 37 offY;
#X obj 156 154 unpack f f f f;
#X obj 205 115 dimension \$1 \$2;
#X obj 241 324 outlet;
#X text 314 115 Takes the dimension of the \; split video. \;;
#X text 221 239 Used to track movement of candle.;
#X text 222 204 crops video.;
#X connect 0 1 1 0;
#X connect 0 2 2 0;
#X connect 0 3 3 0;
#X connect 3 0 12 0;
#X connect 4 0 5 0;
#X connect 5 0 0 0;
#X connect 6 0 11 0;
#X connect 7 0 11 1;
#X connect 10 0 5 1;
#X connect 10 1 5 2;
#X connect 10 2 5 3;
#X connect 10 3 5 4;
#X connect 11 0 10 0;
