#N canvas 544 66 709 679 24;
#N canvas 316 196 589 554 accumulate 0;
#X obj 88 173 inlet;
#X obj 89 461 outlet;
#X obj 280 177 inlet;
#X obj 259 385 list;
#X obj 89 387 list;
#X obj 89 212 t b b;
#X msg 467 208 bang;
#X obj 467 166 inlet;
#X obj 130 335 list prepend;
#X text 53 14 accumulates a sequence of messages into a list;
#X text 45 112 bang to output;
#X text 45 134 accumulated list;
#X text 468 107 bang to;
#X text 455 132 clear list;
#X text 243 122 adds message to;
#X text 243 145 accumulation list;
#X connect 0 0 5 0;
#X connect 2 0 8 0;
#X connect 3 0 8 1;
#X connect 4 0 1 0;
#X connect 5 0 4 0;
#X connect 5 1 8 1;
#X connect 6 0 8 1;
#X connect 7 0 6 0;
#X connect 8 0 3 0;
#X connect 8 0 4 1;
#X restore 256 335 pd accumulate;
#X obj 222 245 bng 15 250 50 0 empty empty empty 17 7 0 10 -262144
-1 -1;
#N canvas 290 105 457 838 serialize 0;
#X obj 96 428 list split 1;
#X obj 96 345 until;
#X obj 96 383 list append;
#X obj 258 429 bang;
#X obj 96 712 outlet;
#X obj 162 244 t b a;
#X obj 162 187 inlet;
#X msg 96 564 A;
#X msg 148 521 set \$1;
#X obj 96 484 t b a;
#X text 55 39 outputs a list of items one by one;
#X text 124 149 input list;
#X text 89 747 output as sequence of messages;
#X connect 0 0 9 0;
#X connect 0 1 2 1;
#X connect 0 2 3 0;
#X connect 1 0 2 0;
#X connect 2 0 0 0;
#X connect 3 0 1 1;
#X connect 5 0 1 0;
#X connect 5 1 2 1;
#X connect 6 0 5 0;
#X connect 7 0 4 0;
#X connect 8 0 7 0;
#X connect 9 0 7 0;
#X connect 9 1 8 0;
#X restore 256 381 pd serialize;
#X obj 483 246 bng 15 250 50 0 empty empty empty 17 7 0 10 -262144
-1 -1;
#N canvas 791 60 820 859 draw 0;
#X obj 25 18 gemhead;
#X obj 25 442 any;
#X obj 95 442 any;
#X obj 195 442 any;
#X obj 120 532 GEMglPushMatrix;
#X obj 161 607 GEMglPopMatrix;
#X obj 147 442 any;
#X obj 248 442 any;
#X floatatom 170 676 5 0 0 0 - - -;
#X obj 25 86 rotateXYZ 0 0 90;
#X obj 95 403 t b;
#X obj 195 403 t b;
#X obj 147 403 t b;
#X obj 247 403 t b;
#X obj 376 87 gemhead;
#X obj 376 121 world_light;
#X obj 25 403 t b;
#X obj 25 799 translateXYZ 0.05 0 0;
#X msg 268 47 create \, 1 \, lighting 1;
#X obj 268 82 gemwin;
#X obj 25 120 t b a;
#X obj 25 719 translateXYZ 0.05 0 0;
#X obj 25 760 rectangle 0.1 0.01;
#X obj 25 51 translateXYZ 0 -3 0;
#X obj 101 675 / 100;
#X msg 248 674 10;
#X obj 308 674 loadbang;
#N canvas 614 88 434 740 serialize 0;
#X obj 97 308 list split 1;
#X obj 97 225 until;
#X obj 97 263 list append;
#X obj 286 308 bang;
#X obj 93 611 outlet;
#X obj 160 164 t b a;
#X obj 160 107 inlet;
#X msg 91 498 A;
#X msg 136 437 set \$1;
#X obj 92 399 t b a;
#X connect 0 0 9 0;
#X connect 0 1 2 1;
#X connect 0 2 3 0;
#X connect 1 0 2 0;
#X connect 2 0 0 0;
#X connect 3 0 1 1;
#X connect 5 0 1 0;
#X connect 5 1 2 1;
#X connect 6 0 5 0;
#X connect 7 0 4 0;
#X connect 8 0 7 0;
#X connect 9 0 7 0;
#X connect 9 1 8 0;
#X restore 25 244 pd serialize;
#X obj 25 206 list;
#X obj 66 170 r draw;
#X text 210 309 parse for drawing operations;
#X text 345 489 drawing operations:;
#X text 96 203 receive system and store;
#X text 179 243 serialize output;
#X obj 95 357 t b b;
#X obj 195 360 t b b;
#X obj 25 311 route A B [ ];
#X obj 95 492 rotateXYZ 0 0 45;
#X obj 149 568 rotateXYZ 0 0 -45;
#X text 370 569 [ => push position and angle \, rotate left;
#X text 371 596 ] => pop position and angle \, rotate right;
#X text 370 544 B => draw line segment;
#X text 369 516 A => draw line segment ending in a leaf;
#X text 524 45 <- click HERE to see;
#X text 414 675 scale drawing;
#X obj 268 10 inlet;
#X connect 0 0 23 0;
#X connect 1 0 21 0;
#X connect 2 0 37 0;
#X connect 3 0 38 0;
#X connect 6 0 4 0;
#X connect 7 0 5 0;
#X connect 8 0 24 0;
#X connect 9 0 20 0;
#X connect 10 0 2 0;
#X connect 11 0 3 0;
#X connect 12 0 6 0;
#X connect 13 0 7 0;
#X connect 14 0 15 0;
#X connect 16 0 1 0;
#X connect 18 0 19 0;
#X connect 20 0 28 0;
#X connect 20 1 1 1;
#X connect 20 1 2 1;
#X connect 20 1 3 1;
#X connect 20 1 6 1;
#X connect 20 1 7 1;
#X connect 21 0 22 0;
#X connect 22 0 17 0;
#X connect 23 0 9 0;
#X connect 24 0 17 1;
#X connect 24 0 21 1;
#X connect 24 0 22 1;
#X connect 25 0 8 0;
#X connect 26 0 25 0;
#X connect 27 0 36 0;
#X connect 28 0 27 0;
#X connect 29 0 28 1;
#X connect 34 0 10 0;
#X connect 34 1 12 0;
#X connect 35 0 11 0;
#X connect 35 1 13 0;
#X connect 36 0 16 0;
#X connect 36 1 16 0;
#X connect 36 2 34 0;
#X connect 36 3 35 0;
#X connect 45 0 18 0;
#X restore 351 481 pd draw;
#X obj 177 381 s draw;
#X text 278 515 draw system to GEM window;
#X text 511 238 <- 1 clear;
#X text 287 178 2 initial axiom;
#X text 82 236 3 iterate ->;
#N canvas 733 250 558 339 rule 0;
#X obj 107 47 inlet;
#X obj 221 236 outlet;
#X obj 107 95 route A B [ ];
#X msg 232 151 B \, B;
#X msg 55 152 B \, [ \, A \, ] \, A;
#X msg 313 150 [;
#X msg 374 152 ];
#X connect 0 0 2 0;
#X connect 2 0 4 0;
#X connect 2 1 3 0;
#X connect 2 2 5 0;
#X connect 2 3 6 0;
#X connect 3 0 1 0;
#X connect 4 0 1 0;
#X connect 5 0 1 0;
#X connect 6 0 1 0;
#X restore 326 288 pd rule;
#X msg 326 218 A;
#X obj 351 457 bng 15 250 50 0 empty empty empty 17 7 0 10 -262144
-1 -1;
#X text 91 450 4 click to see drawing ->;
#X connect 0 0 2 0;
#X connect 0 0 5 0;
#X connect 1 0 0 0;
#X connect 2 0 10 0;
#X connect 3 0 0 2;
#X connect 10 0 0 1;
#X connect 11 0 10 0;
#X connect 12 0 4 0;
