#N canvas 573 95 559 461 24;
#X obj 232 241 osc~;
#X obj 230 146 phasor~;
#X obj 232 365 dac~;
#X obj 232 307 *~ 0;
#X obj 334 265 tgl 15 0 empty empty empty 17 7 0 10 -262144 -1 -1 0
1;
#X obj 231 194 *~ 1000;
#X obj 232 275 lop~;
#X obj 230 53 loadbang;
#X obj 230 91 float 25;
#X obj 230 91 float 25;
#X obj 347 113 loadbang;
#X obj 347 160 float 111;
#X obj 86 126 loadbang;
#X obj 86 169 float 111;
#X obj 354 212 loadbang;
#X connect 0 0 6 0;
#X connect 1 0 5 0;
#X connect 3 0 2 0;
#X connect 3 0 2 1;
#X connect 4 0 3 1;
#X connect 5 0 0 0;
#X connect 6 0 3 0;
#X connect 7 0 8 0;
#X connect 8 0 1 0;
#X connect 10 0 11 0;
#X connect 11 0 6 1;
#X connect 12 0 13 0;
#X connect 13 0 0 0;
#X connect 14 0 4 0;
