#N canvas 536 64 521 344 10;
#X obj 245 259 dac~;
#X obj 248 182 phasor~;
#X obj 248 226 *~ 0;
#X floatatom 248 148 5 0 0 0 - - -, f 5;
#X obj 248 116 line;
#X obj 248 42 bng 15 250 50 0 empty empty empty 17 7 0 10 -262144 -1
-1;
#X text 269 42 Run the patch;
#X text 63 148 Shows the phasor's frequency.;
#X text 355 169 Mute;
#X obj 337 168 tgl 15 1 empty empty empty 17 7 0 10 -262144 -1 -1 1
1;
#X text 33 75 Tells line to create an envelope \; starting at 45 (freq)
and ending \; at 0 over 25 seconds. \;;
#X text 282 116 Creates an envelope that \; changes the frequency.
\;;
#X msg 248 79 45 \, 0 30000;
#X connect 1 0 2 0;
#X connect 2 0 0 0;
#X connect 2 0 0 1;
#X connect 3 0 1 0;
#X connect 4 0 3 0;
#X connect 5 0 12 0;
#X connect 9 0 2 1;
#X connect 12 0 4 0;
