#N canvas 697 66 916 708 12;
#X obj 327 32 inlet;
#X obj 328 500 osc~ 10;
#X obj 362 605 dac~;
#X obj 327 534 *~ 0.1;
#X obj 329 569 equal_power_pan~;
#N canvas 741 186 734 552 scale 0;
#X obj 126 159 expr $f4 + ($f5-$f4) * ( ($f1 - $f2) / ($f3 - $f2) )
;
#X floatatom 76 99 5 0 0 0 - - -;
#X floatatom 195 103 5 0 0 0 - - -;
#X floatatom 285 104 5 0 0 0 - - -;
#X floatatom 367 103 5 0 0 0 - - -;
#X floatatom 443 99 5 0 0 0 - - -;
#X obj 131 226 clip;
#X obj 110 51 inlet;
#X obj 115 263 outlet;
#X obj 186 57 inlet;
#X obj 248 58 inlet;
#X obj 308 62 inlet;
#X obj 372 62 inlet;
#X connect 0 0 6 0;
#X connect 2 0 0 1;
#X connect 3 0 0 2;
#X connect 4 0 0 3;
#X connect 4 0 6 1;
#X connect 5 0 0 4;
#X connect 5 0 6 2;
#X connect 6 0 8 0;
#X connect 7 0 0 0;
#X connect 7 0 1 0;
#X connect 9 0 2 0;
#X connect 10 0 3 0;
#X connect 11 0 4 0;
#X connect 12 0 5 0;
#X restore 590 356 pd scale;
#X floatatom 730 309 5 0 0 0 - - -;
#X floatatom 676 309 5 0 0 0 - - -;
#X floatatom 615 310 5 0 0 0 - - -;
#X floatatom 781 309 5 0 0 0 - - -;
#N canvas 741 186 734 552 scale 0;
#X obj 126 159 expr $f4 + ($f5-$f4) * ( ($f1 - $f2) / ($f3 - $f2) )
;
#X floatatom 76 99 5 0 0 0 - - -;
#X floatatom 195 103 5 0 0 0 - - -;
#X floatatom 285 104 5 0 0 0 - - -;
#X floatatom 367 103 5 0 0 0 - - -;
#X floatatom 443 99 5 0 0 0 - - -;
#X obj 131 226 clip;
#X obj 110 51 inlet;
#X obj 115 263 outlet;
#X obj 186 57 inlet;
#X obj 248 58 inlet;
#X obj 308 62 inlet;
#X obj 372 62 inlet;
#X connect 0 0 6 0;
#X connect 2 0 0 1;
#X connect 3 0 0 2;
#X connect 4 0 0 3;
#X connect 4 0 6 1;
#X connect 5 0 0 4;
#X connect 5 0 6 2;
#X connect 6 0 8 0;
#X connect 7 0 0 0;
#X connect 7 0 1 0;
#X connect 9 0 2 0;
#X connect 10 0 3 0;
#X connect 11 0 4 0;
#X connect 12 0 5 0;
#X restore 323 353 pd scale;
#X floatatom 456 317 5 0 0 0 - - -;
#X floatatom 402 317 5 0 0 0 - - -;
#X floatatom 341 318 5 0 0 0 - - -;
#X floatatom 507 317 5 0 0 0 - - -;
#X floatatom 596 390 5 0 0 0 - - -;
#X floatatom 349 390 5 0 0 0 - - -;
#X obj 617 280 r lo;
#X obj 677 279 r hi;
#X obj 336 285 r lo;
#X obj 403 282 r hi;
#X obj 456 280 r lo2;
#X obj 509 280 r hi2;
#X obj 728 250 loadbang;
#X msg 732 277 0;
#X obj 799 245 loadbang;
#X msg 796 280 1;
#X obj 121 354 change;
#X obj 121 406 random 127;
#X obj 120 447 makenote 100 200;
#X floatatom 75 448 5 0 0 0 - - -;
#X obj 121 382 bng 15 250 50 0 empty empty empty 17 7 0 10 -262144
-1 -1;
#X obj 119 484 noteout 10;
#X connect 0 0 5 0;
#X connect 0 0 10 0;
#X connect 0 0 27 0;
#X connect 1 0 3 0;
#X connect 3 0 4 0;
#X connect 4 0 2 0;
#X connect 4 1 2 1;
#X connect 5 0 4 1;
#X connect 5 0 15 0;
#X connect 6 0 5 3;
#X connect 7 0 5 2;
#X connect 8 0 5 1;
#X connect 9 0 5 4;
#X connect 10 0 1 0;
#X connect 10 0 16 0;
#X connect 11 0 10 3;
#X connect 12 0 10 2;
#X connect 13 0 10 1;
#X connect 14 0 10 4;
#X connect 17 0 8 0;
#X connect 18 0 7 0;
#X connect 19 0 13 0;
#X connect 20 0 12 0;
#X connect 21 0 11 0;
#X connect 22 0 14 0;
#X connect 23 0 24 0;
#X connect 24 0 6 0;
#X connect 25 0 26 0;
#X connect 26 0 9 0;
#X connect 27 0 31 0;
#X connect 28 0 29 0;
#X connect 28 0 30 0;
#X connect 29 0 32 0;
#X connect 29 1 32 1;
#X connect 31 0 28 0;
