#N canvas 2 23 996 893 24;
#X obj 182 111 cnv 15 110 150 empty empty empty 20 12 0 14 -203904
-66577 0;
#X obj 310 112 cnv 15 190 220 empty empty empty 20 12 0 14 -204786
-66577 0;
#X obj 519 112 cnv 15 450 300 empty empty empty 20 12 0 14 -261234
-66577 0;
#X obj 61 110 cnv 15 100 150 empty empty empty 20 12 0 14 -232576 -66577
0;
#X obj 75 493 cnv 15 400 100 empty empty empty 20 12 0 14 -261682 -66577
0;
#X obj 82 205 osc~;
#X floatatom 82 162 5 0 0 0 - pitch -;
#X obj 327 244 *~ 1e+09;
#X obj 327 286 clip~ -0.5 0.5;
#X obj 204 808 dac~;
#X obj 149 511 tgl 15 0 empty empty empty 17 7 0 10 -262144 -1 -1 0
1;
#X obj 232 511 tgl 15 0 empty empty empty 17 7 0 10 -262144 -1 -1 0
1;
#X obj 327 202 osc~;
#X floatatom 327 163 5 0 0 0 - pitch -;
#X obj 196 206 phasor~;
#X obj 329 510 tgl 15 0 empty empty empty 17 7 0 10 -262144 -1 -1 0
1;
#X floatatom 196 164 5 0 0 0 - pitch -;
#X obj 288 540 *~ 0;
#X obj 191 541 *~ 0;
#X obj 108 541 *~ 0;
#X floatatom 330 748 5 0 1 0 - - -;
#X obj 530 332 rpole~ 0.999;
#X obj 420 510 tgl 15 0 empty empty empty 17 7 0 10 -262144 -1 -1 0
1;
#X obj 379 540 *~ 0;
#X obj 530 243 *~ 1e+09;
#X obj 530 284 clip~ -0.5 0.5;
#X obj 530 202 osc~;
#X floatatom 530 163 5 0 0 0 - pitch -;
#X obj 272 807 throw~ scope;
#X text 73 116 sine;
#X text 322 116 square;
#X text 193 117 saw;
#X text 528 117 triangle;
#X text 684 332 integrate;
#X text 636 240 multiply by a large number;
#X text 699 281 clip;
#X text 623 372 scale (b/c integration blows up);
#X obj 27 22 cnv 15 400 40 empty empty Basic_Waveform_Oscillators 20
12 0 24 -228992 -66577 0;
#X obj 530 371 *~ 0.06;
#X obj 245 666 *~;
#X obj 245 747 *~ 0.5;
#X text 396 744 master volume;
#X obj 526 442 cnv 15 220 214 empty empty empty 20 12 0 14 -228856
-66577 0;
#X text 542 453 envelope;
#X obj 549 599 line~;
#X msg 634 557 0 1000;
#X msg 549 557 1 1000;
#X obj 549 518 sel 127 0;
#X text 417 807 throw to scope;
#X obj 549 493 tgl 15 0 empty env empty 17 7 0 10 -262144 -1 -1 0 127
;
#X obj 767 441 cnv 15 200 180 empty empty empty 20 12 0 14 -204800
-66577 0;
#X obj 785 576 s pitch;
#X obj 785 492 notein;
#X obj 785 541 mtof;
#X obj 878 576 s env;
#X text 784 451 midi in;
#X text 414 841 throw to scope;
#X obj 269 841 throw~ spec;
#X connect 5 0 19 0;
#X connect 6 0 5 0;
#X connect 7 0 8 0;
#X connect 8 0 17 0;
#X connect 10 0 19 1;
#X connect 11 0 18 1;
#X connect 12 0 7 0;
#X connect 13 0 12 0;
#X connect 14 0 18 0;
#X connect 15 0 17 1;
#X connect 16 0 14 0;
#X connect 17 0 39 0;
#X connect 18 0 39 0;
#X connect 19 0 39 0;
#X connect 20 0 40 1;
#X connect 21 0 38 0;
#X connect 22 0 23 1;
#X connect 23 0 39 0;
#X connect 24 0 25 0;
#X connect 25 0 21 0;
#X connect 26 0 24 0;
#X connect 27 0 26 0;
#X connect 38 0 23 0;
#X connect 39 0 40 0;
#X connect 40 0 9 1;
#X connect 40 0 9 0;
#X connect 40 0 28 0;
#X connect 40 0 57 0;
#X connect 44 0 39 1;
#X connect 45 0 44 0;
#X connect 46 0 44 0;
#X connect 47 0 46 0;
#X connect 47 1 45 0;
#X connect 49 0 47 0;
#X connect 52 0 53 0;
#X connect 52 1 54 0;
#X connect 53 0 51 0;
