#N canvas 570 195 516 536 24;
#X obj 121 229 *~ 0.5;
#X obj 101 287 dac~;
#X obj 121 148 cycle~ 440;
#X floatatom 121 90 5 0 0 0 - - -;
#X msg 206 89 440;
#X msg 256 89 550;
#X msg 311 89 700;
#X connect 0 0 1 0;
#X connect 0 0 1 1;
#X connect 2 0 0 0;
#X connect 3 0 2 0;
#X connect 4 0 2 0;
#X connect 5 0 2 0;
#X connect 6 0 2 0;
