#N canvas 817 89 707 677 24;
#N canvas 955 92 577 367 rule 0;
#X obj 107 47 inlet;
#X obj 109 253 outlet;
#X obj 107 95 route F + - [ ];
#X msg 107 139 F \, [ \, - \, F \, F \, ] \, F \, [ \, + \, F \, ]
\, F;
#X msg 157 185 +;
#X msg 215 184 -;
#X msg 274 183 [;
#X msg 331 184 ];
#X connect 0 0 2 0;
#X connect 2 0 3 0;
#X connect 2 1 4 0;
#X connect 2 2 5 0;
#X connect 2 3 6 0;
#X connect 2 4 7 0;
#X connect 3 0 1 0;
#X connect 4 0 1 0;
#X connect 5 0 1 0;
#X connect 6 0 1 0;
#X connect 7 0 1 0;
#X restore 326 288 pd rule;
#X obj 222 245 bng 15 250 50 0 empty empty empty 17 7 0 10 -262144
-1 -1;
#X obj 483 246 bng 15 250 50 0 empty empty empty 17 7 0 10 -262144
-1 -1;
#X msg 326 218 F;
#N canvas 914 53 661 863 draw 0;
#X obj 25 18 gemhead;
#X obj 25 399 any;
#X obj 70 399 any;
#X obj 115 399 any;
#X obj 91 556 GEMglPushMatrix;
#X obj 113 594 GEMglPopMatrix;
#X obj 161 399 any;
#X obj 208 399 any;
#X floatatom 175 679 5 0 0 0 - - -;
#X obj 25 86 rotateXYZ 0 0 90;
#X floatatom 238 439 5 0 0 0 - - -;
#X floatatom 276 479 5 0 0 0 - - -;
#X obj 25 311 route F + - [ ];
#X obj 70 360 t b;
#X obj 115 360 t b;
#X obj 161 360 t b;
#X obj 207 360 t b;
#X obj 283 90 gemhead;
#X obj 283 124 world_light;
#X obj 25 360 t b;
#X obj 30 802 translateXYZ 0.05 0 0;
#X msg 284 14 create \, 1 \, lighting 1;
#X obj 284 49 gemwin;
#X obj 25 120 t b a;
#X obj 30 722 translateXYZ 0.05 0 0;
#X obj 30 763 rectangle 0.1 0.01;
#X obj 25 51 translateXYZ 0 -3 0;
#X obj 47 479 rotateXYZ 0 0 50;
#X obj 69 518 rotateXYZ 0 0 -40;
#X obj 106 678 / 100;
#X msg 253 677 10;
#X obj 313 677 loadbang;
#N canvas 614 88 434 740 serialize 0;
#X obj 97 308 list split 1;
#X obj 97 225 until;
#X obj 97 263 list append;
#X obj 286 308 bang;
#X obj 93 611 outlet;
#X obj 160 164 t b a;
#X obj 160 107 inlet;
#X msg 91 498 F;
#X msg 136 437 set \$1;
#X obj 92 399 t b a;
#X connect 0 0 9 0;
#X connect 0 1 2 1;
#X connect 0 2 3 0;
#X connect 1 0 2 0;
#X connect 2 0 0 0;
#X connect 3 0 1 1;
#X connect 5 0 1 0;
#X connect 5 1 2 1;
#X connect 6 0 5 0;
#X connect 7 0 4 0;
#X connect 8 0 7 0;
#X connect 9 0 7 0;
#X connect 9 1 8 0;
#X restore 25 244 pd serialize;
#X obj 25 206 list;
#X obj 66 170 r draw;
#X text 305 435 angle 1;
#X text 345 476 angle 2;
#X text 211 309 parse for drawing operations;
#X text 303 515 drawing operations:;
#X text 326 595 [ => push position and angle;
#X text 327 622 ] => pop position and angle;
#X text 326 570 - => rotate right;
#X text 325 543 + => rotate left;
#X text 93 205 receive system and store;
#X text 179 243 serialize output;
#X obj 365 50 inlet;
#X connect 0 0 26 0;
#X connect 1 0 24 0;
#X connect 2 0 27 0;
#X connect 3 0 28 0;
#X connect 6 0 4 0;
#X connect 7 0 5 0;
#X connect 8 0 29 0;
#X connect 9 0 23 0;
#X connect 10 0 27 3;
#X connect 11 0 28 3;
#X connect 12 0 19 0;
#X connect 12 1 13 0;
#X connect 12 2 14 0;
#X connect 12 3 15 0;
#X connect 12 4 16 0;
#X connect 13 0 2 0;
#X connect 14 0 3 0;
#X connect 15 0 6 0;
#X connect 16 0 7 0;
#X connect 17 0 18 0;
#X connect 19 0 1 0;
#X connect 21 0 22 0;
#X connect 23 0 33 0;
#X connect 23 1 1 1;
#X connect 23 1 2 1;
#X connect 23 1 3 1;
#X connect 23 1 6 1;
#X connect 23 1 7 1;
#X connect 24 0 25 0;
#X connect 25 0 20 0;
#X connect 26 0 9 0;
#X connect 29 0 20 1;
#X connect 29 0 24 1;
#X connect 29 0 25 1;
#X connect 30 0 8 0;
#X connect 31 0 30 0;
#X connect 32 0 12 0;
#X connect 33 0 32 0;
#X connect 34 0 33 1;
#X connect 45 0 21 0;
#X restore 359 468 pd draw;
#X obj 177 381 s draw;
#X text 182 501 draw system to GEM window;
#X text 511 238 <- 1 clear;
#X text 287 178 2 initial axiom;
#X text 82 236 3 iterate ->;
#N canvas 316 196 589 554 accumulate 0;
#X obj 88 173 inlet;
#X obj 89 461 outlet;
#X obj 280 177 inlet;
#X obj 259 385 list;
#X obj 89 387 list;
#X obj 89 212 t b b;
#X msg 467 208 bang;
#X obj 467 166 inlet;
#X obj 130 335 list prepend;
#X text 53 14 accumulates a sequence of messages into a list;
#X text 45 112 bang to output;
#X text 45 134 accumulated list;
#X text 468 107 bang to;
#X text 455 132 clear list;
#X text 243 122 adds message to;
#X text 243 145 accumulation list;
#X connect 0 0 5 0;
#X connect 2 0 8 0;
#X connect 3 0 8 1;
#X connect 4 0 1 0;
#X connect 5 0 4 0;
#X connect 5 1 8 1;
#X connect 6 0 8 1;
#X connect 7 0 6 0;
#X connect 8 0 3 0;
#X connect 8 0 4 1;
#X restore 256 335 pd accumulate;
#N canvas 290 105 457 838 serialize 0;
#X obj 96 428 list split 1;
#X obj 96 345 until;
#X obj 96 383 list append;
#X obj 258 429 bang;
#X obj 96 712 outlet;
#X obj 162 244 t b a;
#X obj 162 187 inlet;
#X msg 96 564 F;
#X msg 148 521 set \$1;
#X obj 96 484 t b a;
#X text 55 39 outputs a list of items one by one;
#X text 124 149 input list;
#X text 89 747 output as sequence of messages;
#X connect 0 0 9 0;
#X connect 0 1 2 1;
#X connect 0 2 3 0;
#X connect 1 0 2 0;
#X connect 2 0 0 0;
#X connect 3 0 1 1;
#X connect 5 0 1 0;
#X connect 5 1 2 1;
#X connect 6 0 5 0;
#X connect 7 0 4 0;
#X connect 8 0 7 0;
#X connect 9 0 7 0;
#X connect 9 1 8 0;
#X restore 256 381 pd serialize;
#X obj 359 437 bng 15 250 50 0 empty empty empty 17 7 0 10 -262144
-1 -1;
#X text 99 430 4 click to see drawing ->;
#X connect 0 0 10 1;
#X connect 1 0 10 0;
#X connect 2 0 10 2;
#X connect 3 0 0 0;
#X connect 10 0 11 0;
#X connect 10 0 5 0;
#X connect 11 0 0 0;
#X connect 12 0 4 0;
