#N canvas 975 57 618 310 24;
#X declare -lib oscx;
#X obj 471 28 import oscx;
#X obj 18 20 cnv 15 400 40 empty empty OSC 20 12 0 24 -228992 -66577
0;
#X obj 43 108 dumpOSC 5001;
#X text 199 107 listen for osc messages at port 5001;
#X text 249 145 parse the message;
#N canvas 900 111 394 320 sound 0;
#X obj 87 51 inlet;
#X obj 87 102 makenote 100 250;
#X obj 87 141 noteout 1;
#X connect 0 0 1 0;
#X connect 1 0 2 0;
#X connect 1 1 2 1;
#X restore 43 232 pd sound;
#X text 95 18 make sure this patch is open;
#X text 93 34 before running processing sketch;
#X text 254 231 synthesize music!;
#X obj 43 149 OSCroute /lifepd;
#N canvas 900 111 394 320 sound 0;
#X obj 87 51 inlet;
#X obj 87 102 makenote 100 250;
#X obj 87 141 noteout 10;
#X connect 0 0 1 0;
#X connect 1 0 2 0;
#X connect 1 1 2 1;
#X restore 146 232 pd sound;
#X connect 2 0 9 0;
#X connect 9 0 5 0;
#X connect 9 0 10 0;
