#N canvas 651 22 629 637 10;
#X obj 327 52 openpanel;
#X msg 327 81 open \$1;
#X obj 327 122 readsf~;
#X obj 327 17 bng 15 250 50 0 empty empty empty 17 7 0 10 -262144 -1
-1;
#X msg 396 80 1;
#X obj 286 154 adc~;
#X obj 327 356 delwrite~ delayLeft 4000;
#X obj 348 328 delwrite~ delayRight 4000;
#X obj 315 552 output~;
#X obj 315 524 vd~ delayLeft;
#X obj 413 524 vd~ delayRight;
#X obj 315 488 sig~;
#X floatatom 315 456 5 0 0 0 - - -;
#X obj 413 488 sig~;
#X floatatom 413 456 5 0 0 0 - - -;
#X obj 227 62 phasor~;
#X floatatom 227 24 5 0 0 0 - - -;
#X obj 413 570 s~ phaseR;
#X obj 242 570 s~ phaseL;
#X obj 255 262 r~ phaseL;
#X obj 418 260 r~ phaseR;
#X obj 327 224 spigot~;
#X obj 387 224 spigot~;
#X obj 403 177 tgl 15 0 empty empty empty 17 7 0 10 -262144 -1 -1 0
1;
#X obj 418 301 spigot~;
#X obj 255 299 spigot~;
#X obj 349 284 tgl 15 0 empty empty empty 17 7 0 10 -262144 -1 -1 1
1;
#X obj 349 259 bng 15 250 50 0 empty empty empty 17 7 0 10 -262144
-1 -1;
#X obj 252 224 loadbang;
#X obj 413 427 float 370;
#X obj 413 396 loadbang;
#X obj 315 395 loadbang;
#X obj 315 426 float 100;
#X text 427 80 Play Sound;
#X obj 327 186 lop~;
#X floatatom 403 155 5 0 0 0 - - -;
#X connect 0 0 1 0;
#X connect 1 0 2 0;
#X connect 2 0 34 0;
#X connect 2 1 34 0;
#X connect 3 0 0 0;
#X connect 4 0 2 0;
#X connect 9 0 8 0;
#X connect 9 0 18 0;
#X connect 10 0 8 1;
#X connect 10 0 17 0;
#X connect 11 0 9 0;
#X connect 12 0 11 0;
#X connect 13 0 10 0;
#X connect 14 0 13 0;
#X connect 16 0 15 0;
#X connect 19 0 25 0;
#X connect 20 0 24 0;
#X connect 21 0 6 0;
#X connect 22 0 7 0;
#X connect 23 0 21 1;
#X connect 23 0 22 1;
#X connect 23 0 27 0;
#X connect 24 0 7 0;
#X connect 25 0 6 0;
#X connect 26 0 25 1;
#X connect 26 0 24 1;
#X connect 27 0 26 0;
#X connect 28 0 27 0;
#X connect 29 0 14 0;
#X connect 30 0 29 0;
#X connect 31 0 32 0;
#X connect 32 0 12 0;
#X connect 34 0 21 0;
#X connect 34 0 22 0;
#X connect 35 0 34 1;
