#N canvas 599 283 640 426 16;
#X msg 125 71 destroy;
#X msg 127 132 1;
#X msg 177 132 0;
#X obj 183 204 gemhead;
#X obj 183 246 color 1 1 0;
#X floatatom 444 226 5 0 0 0 - - -;
#X obj 183 288 rotateXYZ 0 45 10;
#X msg 288 328 draw line;
#X obj 444 189 line;
#X obj 182 369 sphere 2.1;
#X obj 241 139 / 10;
#X obj 242 101 random 9;
#X obj 309 140 / 15;
#X obj 378 137 / 12;
#X obj 291 193 pack f f f;
#X obj 240 23 bng 15 250 50 0 empty empty empty 17 7 0 10 -262144 -1
-1;
#X obj 242 66 metro 50;
#X msg 444 13 0 \, 1000 100000;
#X msg 31 69 create;
#X obj 32 207 gemwin;
#X connect 0 0 19 0;
#X connect 1 0 19 0;
#X connect 2 0 19 0;
#X connect 3 0 4 0;
#X connect 4 0 6 0;
#X connect 5 0 6 2;
#X connect 5 0 6 3;
#X connect 5 0 6 1;
#X connect 6 0 9 0;
#X connect 7 0 9 0;
#X connect 8 0 5 0;
#X connect 10 0 14 0;
#X connect 11 0 10 0;
#X connect 11 0 12 0;
#X connect 11 0 13 0;
#X connect 12 0 14 1;
#X connect 13 0 14 2;
#X connect 14 0 4 1;
#X connect 15 0 16 0;
#X connect 16 0 11 0;
#X connect 17 0 8 0;
#X connect 18 0 19 0;
