#N canvas 102 99 575 401 10;
#X obj 101 155 output~;
#X obj 271 47 table table1;
#X obj 101 94 tabosc4~ table1;
#X obj 101 50 sig~;
#X floatatom 101 16 5 0 0 0 - - -;
#X obj 273 85 table table2;
#X msg 167 60 set table2;
#X msg 167 37 set table1;
#X obj 252 278 tabwrite~ table1;
#X obj 327 204 bng 15 250 50 0 empty empty empty 17 7 0 10 -262144
-1 -1;
#X obj 150 266 fiddle~;
#X msg 150 217 auto 1;
#X obj 175 313 unpack;
#X floatatom 175 375 5 0 0 0 - - -;
#X obj 387 66 openpanel;
#X msg 387 95 open \$1;
#X obj 387 136 readsf~;
#X obj 387 31 bng 15 250 50 0 empty empty empty 17 7 0 10 -262144 -1
-1;
#X msg 456 94 1;
#X text 487 94 Play Sound;
#X obj 252 206 *~ 1;
#X obj 252 166 adc~;
#X obj 175 346 * 10;
#X obj 327 238 metro 100;
#X connect 2 0 0 0;
#X connect 2 0 0 1;
#X connect 3 0 2 0;
#X connect 6 0 2 0;
#X connect 7 0 2 0;
#X connect 9 0 23 0;
#X connect 10 2 12 0;
#X connect 11 0 10 0;
#X connect 12 0 22 0;
#X connect 14 0 15 0;
#X connect 15 0 16 0;
#X connect 16 0 20 0;
#X connect 16 1 20 0;
#X connect 17 0 14 0;
#X connect 18 0 16 0;
#X connect 20 0 8 0;
#X connect 20 0 10 0;
#X connect 22 0 13 0;
#X connect 23 0 8 0;
