#N canvas 640 23 640 700 10;
#N canvas 0 22 450 278 (subpatch) 0;
#X array myarray 441000 float 2;
#X coords 0 1 441000 -1 200 140 1;
#X restore 317 40 graph;
#X obj 358 331 mysampler myarray;
#X msg 253 247 loop \$1;
#X msg 312 247 start;
#X msg 358 247 stop;
#X msg 187 246 speed \$1;
#X obj 253 205 tgl 15 0 empty empty empty 17 7 0 10 -262144 -1 -1 1
1;
#X floatatom 187 213 5 0 0 0 - - -;
#X floatatom 407 296 5 0 0 0 - - -;
#X floatatom 457 296 5 0 0 0 - - -;
#X obj 359 380 dac~;
#X obj 38 125 soundfiler;
#X msg 538 234 \; pd dsp 1;
#X msg 38 76 read -resize excerpt.aiff myarray;
#X msg 538 276 \; pd dsp 0;
#X connect 1 0 10 0;
#X connect 1 0 10 1;
#X connect 2 0 1 0;
#X connect 3 0 1 0;
#X connect 4 0 1 0;
#X connect 5 0 1 0;
#X connect 6 0 2 0;
#X connect 7 0 5 0;
#X connect 8 0 1 1;
#X connect 9 0 1 2;
#X connect 13 0 11 0;
