#N canvas 0 23 640 700 10;
#X obj 153 86 inlet;
#X obj 308 84 inlet;
#X obj 452 84 inlet;
#X obj 354 608 outlet~;
#X text 93 63 Start \, Stop \, Loop \, Speed;
#X text 264 64 Start Position (MS);
#X text 410 64 Stop Position (MS);
#X text 347 630 Audio Out;
#X obj 354 580 tabread4~ \$1;
#X floatatom 353 334 5 0 0 0 - - -;
#X obj 354 377 phasor~;
#X obj 354 460 *~;
#X obj 354 527 +~;
#X text 392 333 frequency (hz);
#X text 413 445 duration (samps);
#X floatatom 369 431 5 0 0 0 - - -;
#X floatatom 369 497 5 0 0 0 - - -;
#X text 411 494 start (samps);
#N canvas 694 385 464 391 playback-freq 1;
#X obj 92 61 inlet;
#X obj 92 288 outlet;
#X text 60 37 duration (samps);
#X text 67 312 playback rate (hz);
#X obj 92 97 trigger f b;
#X obj 161 128 samplerate~;
#X obj 92 167 expr $f2/$f1;
#X floatatom 110 194 5 0 0 0 - - -;
#X text 248 92 playback speed;
#X obj 276 115 inlet;
#X obj 276 146 trigger b f;
#X obj 92 236 float;
#X obj 92 264 *;
#X connect 0 0 4 0;
#X connect 4 0 6 0;
#X connect 4 1 5 0;
#X connect 5 0 6 1;
#X connect 6 0 7 0;
#X connect 6 0 11 0;
#X connect 9 0 10 0;
#X connect 10 0 11 0;
#X connect 10 1 12 1;
#X connect 11 0 12 0;
#X connect 12 0 1 0;
#X restore 400 298 pd playback-freq;
#N canvas 580 298 450 300 duration 0;
#X obj 188 68 inlet;
#X obj 188 224 outlet;
#X text 156 42 start time \, stop time (samps);
#X text 169 253 duration (samps);
#X obj 188 102 unpack f f;
#X obj 188 149 expr max($f2 - $f1 \, 0);
#X floatatom 221 186 5 0 0 0 - - -;
#X connect 0 0 4 0;
#X connect 4 0 5 0;
#X connect 4 1 5 1;
#X connect 5 0 6 0;
#X connect 5 0 1 0;
#X restore 400 237 pd duration;
#X obj 308 148 pack f f;
#X obj 308 184 trigger l l;
#X msg 308 460 \$1;
#X obj 400 266 trigger f f;
#N canvas 60 346 457 321 calc-start 0;
#X obj 174 58 inlet;
#X obj 174 267 outlet;
#X text 138 33 Start Position (MS);
#X obj 174 93 trigger f b;
#X obj 237 128 samplerate~;
#X obj 237 158 / 1000;
#X obj 174 187 * 44.1;
#X floatatom 205 244 5 0 0 0 - - -;
#X text 135 293 Start Position (samps);
#X obj 174 215 expr max($f1 \, 0);
#X connect 0 0 3 0;
#X connect 3 0 6 0;
#X connect 3 1 4 0;
#X connect 4 0 5 0;
#X connect 5 0 6 1;
#X connect 6 0 9 0;
#X connect 9 0 7 0;
#X connect 9 0 1 0;
#X restore 308 115 pd calc-start;
#N canvas 0 22 465 335 calc-stop 0;
#X obj 181 71 inlet;
#X obj 181 277 outlet;
#X text 144 44 Stop Position (MS);
#X obj 181 106 trigger f b;
#X obj 244 134 samplerate~;
#X obj 244 162 / 1000;
#X obj 181 189 * 44.1;
#X obj 181 224 expr min($f1 \, size("\$1"));
#X floatatom 215 255 5 0 0 0 - - -;
#X text 142 302 Stop Position (samps);
#X connect 0 0 3 0;
#X connect 3 0 6 0;
#X connect 3 1 4 0;
#X connect 4 0 5 0;
#X connect 5 0 6 1;
#X connect 6 0 7 0;
#X connect 7 0 8 0;
#X connect 7 0 1 0;
#X restore 452 117 pd calc-stop;
#X obj 69 124 route start stop loop speed;
#X msg 69 214 1;
#X obj 69 255 tgl 15 0 empty empty empty 17 7 0 10 -262144 -1 -1 1
1;
#X msg 165 166 0;
#X msg 132 214 0;
#N canvas 556 120 476 379 loop 0;
#X obj 170 312 outlet;
#X obj 282 93 inlet;
#X obj 312 152 inlet;
#X obj 70 31 inlet~;
#X text 45 11 phasor~ input;
#X obj 143 79 change~;
#X obj 143 110 expr~ $v1==-1;
#X obj 143 141 edge~;
#X obj 143 181 counter;
#X text 246 71 bang delays one stop;
#X text 353 150 loop;
#X obj 143 213 sel 0;
#X msg 170 245 0;
#X obj 170 276 spigot;
#X text 138 331 to playback spigot;
#X obj 219 214 expr abs(1-$f1);
#X obj 219 244 tgl 15 0 empty empty empty 17 7 0 10 -262144 -1 -1 0
1;
#X connect 1 0 8 2;
#X connect 2 0 15 0;
#X connect 3 0 5 0;
#X connect 5 0 6 0;
#X connect 6 0 7 0;
#X connect 7 0 8 0;
#X connect 8 0 11 0;
#X connect 11 1 12 0;
#X connect 12 0 13 0;
#X connect 13 0 0 0;
#X connect 15 0 16 0;
#X connect 16 0 13 1;
#X restore 195 213 pd loop;
#X obj 207 168 tgl 15 0 empty empty empty 17 7 0 10 -262144 -1 -1 1
1;
#X obj 69 166 trigger b b b;
#X obj 315 556 spigot~;
#X connect 0 0 26 0;
#X connect 1 0 24 0;
#X connect 2 0 25 0;
#X connect 8 0 3 0;
#X connect 9 0 10 0;
#X connect 10 0 11 0;
#X connect 10 0 31 0;
#X connect 11 0 12 0;
#X connect 12 0 34 0;
#X connect 15 0 11 1;
#X connect 16 0 12 1;
#X connect 18 0 9 0;
#X connect 19 0 23 0;
#X connect 20 0 21 0;
#X connect 21 0 22 0;
#X connect 21 1 19 0;
#X connect 22 0 16 0;
#X connect 23 0 18 0;
#X connect 23 1 15 0;
#X connect 24 0 20 0;
#X connect 25 0 20 1;
#X connect 26 0 33 0;
#X connect 26 1 29 0;
#X connect 26 2 32 0;
#X connect 26 3 18 1;
#X connect 27 0 28 0;
#X connect 28 0 34 1;
#X connect 29 0 28 0;
#X connect 30 0 10 1;
#X connect 31 0 28 0;
#X connect 32 0 31 2;
#X connect 33 0 27 0;
#X connect 33 1 30 0;
#X connect 33 2 31 1;
#X connect 34 1 8 0;
