#N canvas 39 28 590 598 24;
#X obj 73 25 cnv 15 400 40 empty empty Frequency_Modulation 20 12 0
24 -228992 -66577 0;
#X obj 89 391 osc~;
#X obj 88 139 inlet~;
#X text 76 103 modulator;
#X obj 89 522 outlet~;
#N canvas 593 48 935 766 spectrogram 0;
#X obj 20 133 inlet~;
#X obj 34 251 rfft~;
#X obj 34 290 *~;
#X obj 82 290 *~;
#X obj 36 330 sqrt~;
#X obj 36 212 hip~ 3;
#X obj 45 440 metrum 100 1;
#X obj 125 375 hsl 100 10 1 50 0 0 \$0a \$0b Zoom -36 5 0 12 -228856
-1 -1 0 1;
#X obj 198 228 loadbang;
#X obj 35 370 *~ 1;
#X text 179 139 Spectrum analyser based on M. Puckette's tutorial patch.
Harmonic content is analysed in 512 bins resolution.;
#X obj 7 523 outlet~;
#X obj 33 403 /~ 511;
#X text 564 590 Outlets;
#X text 564 540 Inlets;
#X text 563 560 - Audio to analyse;
#X text 564 640 GUI;
#X text 564 660 - Zoom control;
#X text 564 610 - Same as inlet;
#N canvas 0 22 426 446 license 0;
#X text 8 47 All rights reserved.;
#X text 8 227 The names of its contributors may not be used to endorse
or promote products derived from this software without specific prior
written permission.;
#X text 8 87 Redistribution and use in source and binary forms \, with
or without modification \, are permitted provided that the following
conditions are met:;
#X text 8 127 Redistributions of source code must retain the above
copyright notice \, this list of conditions and the following disclaimer.
;
#X text 8 297 THIS SOFTWARE IS PROVIDED BY THE COPYRIGHT HOLDERS AND
CONTRIBUTORS "AS IS" AND ANY EXPRESS OR IMPLIED WARRANTIES \, INCLUDING
\, BUT NOT LIMITED TO \, THE IMPLIED WARRANTIES OF MERCHANTABILITY
AND FITNESS FOR A PARTICULAR PURPOSE ARE DISCLAIMED. IN NO EVENT SHALL
THE COPYRIGHT OWNER OR CONTRIBUTORS BE LIABLE FOR ANY DIRECT \, INDIRECT
\, INCIDENTAL \, SPECIAL \, EXEMPLARY \, OR CONSEQUENTIAL DAMAGES (INCLUDING
\, BUT NOT LIMITED TO \, PROCUREMENT OF SUBSTITUTE GOODS OR SERVICES
;
#X text 8 167 Redistributions in binary form must reproduce the above
copyright notice \, this list of conditions and the following disclaimer
in the documentation and/or other materials provided with the distribution.
;
#X text 8 27 jmmmpais@googlemail.com;
#X text 8 7 Copyright 2006 \, João Pais;
#X restore 30 666 pd license;
#X text 30 626 (C) 2009 João Pais - jmmmpais@googlemail.com;
#X text 169 88 [spectrogram~] - Spectrogram with 512 bins resolution
;
#X obj 241 401 block~ 2048 1;
#X msg 229 279 xticks 0 10 1 \, yticks 0 0.25 1;
#X obj 38 485 tabwrite~ \$0-spec;
#X obj 238 356 s \$0-spec;
#X connect 0 0 5 0;
#X connect 0 0 11 0;
#X connect 1 0 2 0;
#X connect 1 0 2 1;
#X connect 1 1 3 0;
#X connect 1 1 3 1;
#X connect 2 0 4 0;
#X connect 3 0 4 0;
#X connect 4 0 9 0;
#X connect 5 0 1 0;
#X connect 6 0 24 0;
#X connect 7 0 9 1;
#X connect 8 0 23 0;
#X connect 9 0 12 0;
#X connect 12 0 24 0;
#X connect 23 0 25 0;
#X restore 114 462 pd spectrogram;
#X text 145 390 carrier;
#N canvas 0 22 450 300 (subpatch) 0;
#X array \$0-spec 94 float 0;
#X coords 0 1 93 0 100 75 1 0 0;
#X restore 271 199 graph;
#X obj 112 225 inlet~;
#X obj 89 300 *~;
#X obj 168 305 inlet~;
#X obj 89 352 +~;
#X connect 1 0 5 0;
#X connect 1 0 4 0;
#X connect 2 0 9 0;
#X connect 8 0 9 1;
#X connect 9 0 11 0;
#X connect 10 0 11 1;
#X connect 11 0 1 0;
#X coords 0 -1 1 1 180 110 2 196 170;
