#N canvas 209 291 816 590 12;
#X declare -lib oscx;
#X obj 503 35 import oscx;
#X obj 18 20 cnv 15 400 40 empty empty OSC 20 12 0 24 -228992 -66577
0;
#X obj 54 151 dumpOSC 5001;
#X obj 54 183 OSCroute /hellopd;
#X floatatom 50 299 5 0 0 0 - - -;
#X floatatom 106 301 5 0 0 0 - - -;
#X floatatom 171 296 5 0 0 0 - - -;
#X floatatom 224 295 5 0 0 0 - - -;
#X obj 54 222 route 0 1 2 3 4 5 6 7 8;
#X floatatom 272 299 5 0 0 0 - - -;
#X floatatom 327 301 5 0 0 0 - - -;
#X floatatom 389 296 5 0 0 0 - - -;
#X floatatom 442 295 5 0 0 0 - - -;
#X obj 612 313 s lo;
#X obj 674 315 s hi;
#X obj 614 480 s lo2;
#X obj 676 480 s hi2;
#X floatatom 612 283 5 0 0 0 - - -;
#X floatatom 672 284 5 0 0 0 - - -;
#X floatatom 614 448 5 0 0 0 - - -;
#X floatatom 675 446 5 0 0 0 - - -;
#X obj 178 431 bonkers-synth;
#X obj 222 392 bonkers-synth;
#X obj 270 354 bonkers-synth;
#X obj 336 431 bonkers-synth;
#X obj 390 391 bonkers-synth;
#X obj 441 344 bonkers-synth;
#X obj 54 408 bonkers-synth;
#X obj 105 366 bonkers-synth;
#X text 163 20 make sure this patch is open before;
#X text 161 36 running the processing sketch!!!;
#X text 167 148 listen for osc messages at port 5001;
#X text 200 181 parse the message;
#X text 240 221 route ball message to synth;
#X text 88 481 i'm using midi inside these synths so you need;
#X text 89 502 a midi device to hear it. i like simplesynth.;
#X obj 614 198 loadbang;
#X msg 613 243 -3;
#X msg 670 246 3;
#X obj 614 365 loadbang;
#X msg 613 410 60;
#X msg 670 413 1200;
#X connect 2 0 3 0;
#X connect 3 0 8 0;
#X connect 4 0 27 0;
#X connect 5 0 28 0;
#X connect 6 0 21 0;
#X connect 7 0 22 0;
#X connect 8 0 4 0;
#X connect 8 1 5 0;
#X connect 8 2 6 0;
#X connect 8 3 7 0;
#X connect 8 4 9 0;
#X connect 8 5 10 0;
#X connect 8 6 11 0;
#X connect 8 7 12 0;
#X connect 9 0 23 0;
#X connect 10 0 24 0;
#X connect 11 0 25 0;
#X connect 12 0 26 0;
#X connect 17 0 13 0;
#X connect 18 0 14 0;
#X connect 19 0 15 0;
#X connect 20 0 16 0;
#X connect 36 0 37 0;
#X connect 36 0 38 0;
#X connect 37 0 17 0;
#X connect 38 0 18 0;
#X connect 39 0 40 0;
#X connect 39 0 41 0;
#X connect 40 0 19 0;
#X connect 41 0 20 0;
