#N canvas 1339 22 500 429 24;
#X obj 197 288 output~;
#N canvas 777 58 718 833 delay 0;
#X obj 162 718 block~ 1;
#X obj 165 601 outlet~;
#X obj 271 600 delwrite~ feedback 1000;
#X floatatom 165 85 5 0 0 0 - - -;
#X obj 165 177 vd~ feedback;
#X text 232 85 <-- delay time in ms;
#X text 284 632 feedback out;
#X text 177 140 feedback in;
#X text 188 635 out;
#X text 269 719 sets block size in the subpatch;
#X obj 165 449 fm~;
#X floatatom 292 369 5 0 0 0 - - -;
#X obj 292 401 sig~;
#X floatatom 374 369 5 0 0 0 - - -;
#X obj 374 402 sig~;
#X obj 165 400 osc~ 440;
#X obj 165 267 *~ 500;
#X obj 165 304 +~ 1000;
#X floatatom 247 219 5 0 0 0 - - -;
#X floatatom 253 264 5 0 0 0 - - -;
#X connect 3 0 4 0;
#X connect 4 0 16 0;
#X connect 10 0 1 0;
#X connect 10 0 2 0;
#X connect 11 0 12 0;
#X connect 12 0 10 1;
#X connect 13 0 14 0;
#X connect 14 0 10 2;
#X connect 15 0 10 0;
#X connect 16 0 17 0;
#X connect 17 0 15 0;
#X connect 18 0 16 1;
#X connect 19 0 17 1;
#X restore 197 218 pd delay;
#X obj 56 52 cnv 15 400 40 empty empty Feedback 20 12 0 24 -228992
-66577 0;
#X text 58 103 digital feedback with a sine osc;
#X connect 1 0 0 0;
#X connect 1 0 0 1;
