#N canvas 512 28 904 576 24;
#X obj 77 476 spigot;
#X obj 365 424 bonk~;
#X obj 77 367 spigot;
#X obj 156 368 tgl 15 0 empty empty empty 0 -6 0 8 -262144 -1 -1 0
1;
#X obj 160 480 tgl 15 0 empty empty empty 0 -6 0 8 -262144 -1 -1 1
1;
#X obj 77 514 print cooked;
#X obj 77 402 print raw;
#X obj 441 486 s bonk-cooked;
#X obj 49 248 dac~;
#X obj 85 141 bng 15 250 50 0 empty empty empty 17 7 0 10 -262144 -1
-1;
#N canvas 50 22 1531 765 samples 0;
#X obj 61 65 inlet;
#X obj 66 181 readsf~;
#X msg 51 139 start;
#X obj 61 106 t b b;
#X msg 124 139 open drums/kick.wav;
#X obj 597 678 outlet~;
#X obj 198 312 inlet;
#X obj 203 428 readsf~;
#X msg 188 386 start;
#X obj 198 353 t b b;
#X obj 388 53 inlet;
#X obj 393 169 readsf~;
#X msg 378 127 start;
#X obj 388 94 t b b;
#X obj 730 47 inlet;
#X obj 735 163 readsf~;
#X msg 720 121 start;
#X obj 730 88 t b b;
#X msg 261 386 open drums/snare.wav;
#X msg 451 127 open drums/hat.wav;
#X msg 793 121 open drums/hat-open.wav;
#X obj 864 316 inlet;
#X obj 869 432 readsf~;
#X msg 854 390 start;
#X obj 864 357 t b b;
#X obj 1093 43 inlet;
#X obj 1098 159 readsf~;
#X msg 1083 117 start;
#X obj 1093 84 t b b;
#X msg 927 390 open drums/crash.wav;
#X msg 1156 117 open drums/tom.wav;
#X obj 67 222 throw~ samples;
#X obj 203 471 throw~ samples;
#X obj 392 214 throw~ samples;
#X obj 736 203 throw~ samples;
#X obj 863 471 throw~ samples;
#X obj 1093 198 throw~ samples;
#X obj 597 637 catch~ samples;
#X obj 523 313 inlet;
#X obj 528 429 readsf~;
#X msg 513 387 start;
#X obj 523 354 t b b;
#X obj 529 469 throw~ samples;
#X msg 586 387 open drums/shaker.wav;
#X obj 1202 311 inlet;
#X obj 1207 427 readsf~;
#X msg 1192 385 start;
#X obj 1202 352 t b b;
#X obj 1202 466 throw~ samples;
#X msg 1265 385 open drums/tom2.wav;
#X connect 0 0 3 0;
#X connect 1 0 31 0;
#X connect 2 0 1 0;
#X connect 3 0 2 0;
#X connect 3 1 4 0;
#X connect 4 0 1 0;
#X connect 6 0 9 0;
#X connect 7 0 32 0;
#X connect 8 0 7 0;
#X connect 9 0 8 0;
#X connect 9 1 18 0;
#X connect 10 0 13 0;
#X connect 11 0 33 0;
#X connect 12 0 11 0;
#X connect 13 0 12 0;
#X connect 13 1 19 0;
#X connect 14 0 17 0;
#X connect 15 0 34 0;
#X connect 16 0 15 0;
#X connect 17 0 16 0;
#X connect 17 1 20 0;
#X connect 18 0 7 0;
#X connect 19 0 11 0;
#X connect 20 0 15 0;
#X connect 21 0 24 0;
#X connect 22 0 35 0;
#X connect 23 0 22 0;
#X connect 24 0 23 0;
#X connect 24 1 29 0;
#X connect 25 0 28 0;
#X connect 26 0 36 0;
#X connect 27 0 26 0;
#X connect 28 0 27 0;
#X connect 28 1 30 0;
#X connect 29 0 22 0;
#X connect 30 0 26 0;
#X connect 37 0 5 0;
#X connect 38 0 41 0;
#X connect 39 0 42 0;
#X connect 40 0 39 0;
#X connect 41 0 40 0;
#X connect 41 1 43 0;
#X connect 43 0 39 0;
#X connect 44 0 47 0;
#X connect 45 0 48 0;
#X connect 46 0 45 0;
#X connect 47 0 46 0;
#X connect 47 1 49 0;
#X connect 49 0 45 0;
#X restore 89 188 pd samples;
#X obj 106 142 bng 15 250 50 0 empty empty empty 17 7 0 10 -262144
-1 -1;
#X obj 127 141 bng 15 250 50 0 empty empty empty 17 7 0 10 -262144
-1 -1;
#X obj 149 141 bng 15 250 50 0 empty empty empty 17 7 0 10 -262144
-1 -1;
#X obj 364 197 readsf~;
#X msg 355 149 start;
#X obj 359 108 t b b;
#X obj 359 78 bng 15 250 50 0 empty empty empty 17 7 0 10 -262144 -1
-1;
#X obj 170 141 bng 15 250 50 0 empty empty empty 17 7 0 10 -262144
-1 -1;
#X obj 191 142 bng 15 250 50 0 empty empty empty 17 7 0 10 -262144
-1 -1;
#X obj 212 141 bng 15 250 50 0 empty empty empty 17 7 0 10 -262144
-1 -1;
#X obj 234 141 bng 15 250 50 0 empty empty empty 17 7 0 10 -262144
-1 -1;
#N canvas 499 432 822 428 keys 0;
#X obj 72 36 key;
#X obj 72 93 spigot;
#X obj 157 98 tgl 15 0 empty empty empty 17 7 0 10 -262144 -1 -1 1
1;
#X obj 72 194 sel 0 1 2 3 4 5 6 7;
#X obj 72 316 outlet;
#X obj 152 316 outlet;
#X obj 235 314 outlet;
#X obj 318 315 outlet;
#X obj 402 313 outlet;
#X obj 483 313 outlet;
#X obj 561 312 outlet;
#X obj 643 310 outlet;
#X obj 72 136 - 49;
#X obj 157 37 inlet;
#X connect 0 0 1 0;
#X connect 1 0 12 0;
#X connect 2 0 1 1;
#X connect 3 0 4 0;
#X connect 3 1 5 0;
#X connect 3 2 6 0;
#X connect 3 3 7 0;
#X connect 3 4 8 0;
#X connect 3 5 9 0;
#X connect 3 6 10 0;
#X connect 3 7 11 0;
#X connect 12 0 3 0;
#X connect 13 0 2 0;
#X restore 90 87 pd keys;
#X obj 90 59 tgl 15 0 empty empty empty 17 7 0 10 -262144 -1 -1 1 1
;
#X obj 305 490 s bonk-raw;
#N canvas 502 635 1187 305 drum-monitor 0;
#X obj 448 14 r bonk-cooked;
#X obj 448 58 route 0 1 2 3 4 5 6 7;
#X floatatom 20 244 5 0 0 0 - - -;
#X obj 20 204 unpack;
#X floatatom 83 245 5 0 0 0 - - -;
#X obj 36 160 bng 35 250 50 0 empty empty empty 17 7 0 10 -262144 -1
-1;
#X obj 20 125 t l b;
#X floatatom 162 245 5 0 0 0 - - -;
#X obj 162 205 unpack;
#X floatatom 225 246 5 0 0 0 - - -;
#X obj 178 161 bng 35 250 50 0 empty empty empty 17 7 0 10 -262144
-1 -1;
#X obj 162 126 t l b;
#X floatatom 316 247 5 0 0 0 - - -;
#X obj 316 207 unpack;
#X floatatom 379 248 5 0 0 0 - - -;
#X obj 332 163 bng 35 250 50 0 empty empty empty 17 7 0 10 -262144
-1 -1;
#X obj 316 128 t l b;
#X floatatom 463 249 5 0 0 0 - - -;
#X obj 463 209 unpack;
#X floatatom 526 250 5 0 0 0 - - -;
#X obj 479 165 bng 35 250 50 0 empty empty empty 17 7 0 10 -262144
-1 -1;
#X obj 463 130 t l b;
#X floatatom 600 250 5 0 0 0 - - -;
#X obj 600 210 unpack;
#X floatatom 663 251 5 0 0 0 - - -;
#X obj 616 166 bng 35 250 50 0 empty empty empty 17 7 0 10 -262144
-1 -1;
#X obj 600 131 t l b;
#X floatatom 742 251 5 0 0 0 - - -;
#X obj 742 211 unpack;
#X floatatom 805 252 5 0 0 0 - - -;
#X obj 758 167 bng 35 250 50 0 empty empty empty 17 7 0 10 -262144
-1 -1;
#X obj 742 132 t l b;
#X floatatom 896 253 5 0 0 0 - - -;
#X obj 896 213 unpack;
#X floatatom 959 254 5 0 0 0 - - -;
#X obj 912 169 bng 35 250 50 0 empty empty empty 17 7 0 10 -262144
-1 -1;
#X obj 896 134 t l b;
#X floatatom 1043 255 5 0 0 0 - - -;
#X obj 1043 215 unpack;
#X floatatom 1106 256 5 0 0 0 - - -;
#X obj 1059 171 bng 35 250 50 0 empty empty empty 17 7 0 10 -262144
-1 -1;
#X obj 1043 136 t l b;
#X connect 0 0 1 0;
#X connect 1 0 6 0;
#X connect 1 1 11 0;
#X connect 1 2 16 0;
#X connect 1 3 21 0;
#X connect 1 4 26 0;
#X connect 1 5 31 0;
#X connect 1 6 36 0;
#X connect 1 7 41 0;
#X connect 3 0 2 0;
#X connect 3 1 4 0;
#X connect 6 0 3 0;
#X connect 6 1 5 0;
#X connect 8 0 7 0;
#X connect 8 1 9 0;
#X connect 11 0 8 0;
#X connect 11 1 10 0;
#X connect 13 0 12 0;
#X connect 13 1 14 0;
#X connect 16 0 13 0;
#X connect 16 1 15 0;
#X connect 18 0 17 0;
#X connect 18 1 19 0;
#X connect 21 0 18 0;
#X connect 21 1 20 0;
#X connect 23 0 22 0;
#X connect 23 1 24 0;
#X connect 26 0 23 0;
#X connect 26 1 25 0;
#X connect 28 0 27 0;
#X connect 28 1 29 0;
#X connect 31 0 28 0;
#X connect 31 1 30 0;
#X connect 33 0 32 0;
#X connect 33 1 34 0;
#X connect 36 0 33 0;
#X connect 36 1 35 0;
#X connect 38 0 37 0;
#X connect 38 1 39 0;
#X connect 41 0 38 0;
#X connect 41 1 40 0;
#X restore 680 481 pd drum-monitor;
#X obj 386 244 dac~;
#X msg 577 332 thresh 5 10;
#X msg 577 376 attack-frames 3;
#X obj 77 333 r bonk-raw;
#X obj 77 439 r bonk-cooked;
#X msg 577 291 minvel 25;
#X msg 432 148 open beat.wav;
#N canvas 52 463 402 407 learn 1;
#X msg 107 148 learn 0;
#X msg 126 191 forget;
#X msg 137 232 write templates.txt;
#X msg 155 269 read templates.txt;
#X obj 67 327 outlet;
#X msg 92 100 learn 1;
#X msg 67 58 debounce 0;
#X connect 0 0 4 0;
#X connect 1 0 4 0;
#X connect 2 0 4 0;
#X connect 3 0 4 0;
#X connect 5 0 4 0;
#X connect 6 0 4 0;
#X restore 698 146 pd learn;
#X connect 0 0 5 0;
#X connect 1 0 24 0;
#X connect 1 1 7 0;
#X connect 2 0 6 0;
#X connect 3 0 2 1;
#X connect 4 0 0 1;
#X connect 9 0 10 0;
#X connect 10 0 8 1;
#X connect 10 0 8 0;
#X connect 10 0 1 0;
#X connect 11 0 10 1;
#X connect 12 0 10 2;
#X connect 13 0 10 3;
#X connect 14 0 1 0;
#X connect 14 0 26 0;
#X connect 14 0 26 1;
#X connect 15 0 14 0;
#X connect 16 0 15 0;
#X connect 16 1 32 0;
#X connect 17 0 16 0;
#X connect 18 0 10 4;
#X connect 19 0 10 5;
#X connect 20 0 10 6;
#X connect 21 0 10 7;
#X connect 22 0 9 0;
#X connect 22 1 11 0;
#X connect 22 2 12 0;
#X connect 22 3 13 0;
#X connect 22 4 18 0;
#X connect 22 5 19 0;
#X connect 22 6 20 0;
#X connect 22 7 21 0;
#X connect 23 0 22 0;
#X connect 27 0 1 0;
#X connect 28 0 1 0;
#X connect 29 0 2 0;
#X connect 30 0 0 0;
#X connect 31 0 1 0;
#X connect 32 0 14 0;
#X connect 33 0 1 0;
