#N canvas 707 50 699 657 24;
#X obj 167 539 delwrite~ feedback 1000;
#X floatatom 167 186 5 0 0 0 - - -;
#X floatatom 241 323 5 0 1 0 - - -;
#X obj 167 278 vd~ feedback;
#X obj 74 360 output~;
#X obj 508 426 metro 333;
#X obj 508 400 tgl 15 0 empty empty empty 17 7 0 10 -262144 -1 -1 0
1;
#X obj 46 42 cnv 15 400 40 empty empty Feedback 20 12 0 24 -228992
-66577 0;
#X text 48 93 digital feedback using a delay line;
#X text 234 186 <-- delay time in ms;
#X obj 167 363 *~ 0.99;
#X text 309 321 <-- feedback gain;
#X obj 238 482 line~;
#X msg 238 437 0 \, 1 1;
#X obj 350 452 bng 15 250 50 0 empty empty empty 17 7 0 10 -262144
-1 -1;
#N canvas 682 190 563 584 noise 0;
#X obj 139 121 noise~;
#X obj 241 332 line~;
#X obj 139 390 *~;
#X msg 241 246 0 \, 1 1;
#X msg 333 270 0 10;
#X obj 333 232 delay 30;
#X obj 241 189 t b b;
#X obj 241 120 inlet;
#X obj 139 454 outlet~;
#X connect 0 0 2 0;
#X connect 1 0 2 1;
#X connect 2 0 8 0;
#X connect 3 0 1 0;
#X connect 4 0 1 0;
#X connect 5 0 4 0;
#X connect 6 0 3 0;
#X connect 6 1 5 0;
#X connect 7 0 6 0;
#X restore 350 483 pd noise;
#X text 81 401 dac~;
#X text 180 571 feedback out;
#X text 179 241 feedback in;
#X obj 508 307 key;
#X obj 508 348 sel 32;
#X connect 1 0 3 0;
#X connect 2 0 10 1;
#X connect 3 0 10 0;
#X connect 3 0 4 1;
#X connect 3 0 4 0;
#X connect 5 0 14 0;
#X connect 6 0 5 0;
#X connect 10 0 0 0;
#X connect 12 0 0 0;
#X connect 13 0 12 0;
#X connect 14 0 15 0;
#X connect 15 0 0 0;
#X connect 19 0 20 0;
#X connect 20 0 14 0;
