#N canvas 226 108 1355 591 24;
#X obj 61 368 hip~ 5;
#X text 144 367 high pass filter to cut DC;
#N canvas 0 22 450 300 (subpatch) 0;
#X array sample1 44104 float 0;
#X coords 0 1.02 44103 -1.02 600 390 1 0 0;
#X restore 643 41 graph;
#X obj 61 279 line~;
#X obj 61 191 * 441;
#X floatatom 61 145 0 0 100 0 - - -;
#X text 22 16 SCRATCH MACHINE;
#X text 130 190 convert to SAMPLES (441 samples in 0.01 sec);
#X text 272 322 read from the table;
#X text 132 275 convert smoothly to audio signal;
#X obj 642 491 soundfiler;
#X obj 61 420 output~;
#X obj 61 104 r play;
#X obj 61 234 pack 0 100;
#X text 104 143 (range is 0-100);
#X obj 61 324 tabread4~ sample1;
#X msg 642 452 read sound/voice.wav sample1;
#X connect 0 0 11 0;
#X connect 0 0 11 1;
#X connect 3 0 15 0;
#X connect 4 0 13 0;
#X connect 5 0 4 0;
#X connect 12 0 5 0;
#X connect 13 0 3 0;
#X connect 15 0 0 0;
#X connect 16 0 10 0;
