#N canvas 304 44 1361 656 24;
#X obj 61 368 hip~ 5;
#X text 144 367 high pass filter to cut DC;
#N canvas 0 22 450 300 (subpatch) 0;
#X array sample1 44104 float 0;
#X coords 0 1.02 44103 -1.02 600 390 1 0 0;
#X restore 643 36 graph;
#X obj 61 279 line~;
#X obj 61 191 * 441;
#X floatatom 61 145 0 0 100 0 - - -;
#X text 22 16 SCRATCH MACHINE;
#X text 130 190 convert to SAMPLES (441 samples in 0.01 sec);
#X text 272 322 read from the table;
#X text 132 275 convert smoothly to audio signal;
#X obj 644 522 soundfiler;
#X obj 61 420 output~;
#X obj 61 104 r play;
#X obj 61 234 pack 0 100;
#X text 179 143 (range is 0-100);
#X obj 61 324 tabread4~ sample1;
#X msg 644 483 read sound/voice.wav sample1;
#N canvas 103 571 591 376 mouse 0;
#X obj 48 67 cursor;
#X obj 48 149 route x y;
#X obj 48 35 tgl 15 0 empty empty empty 17 7 0 10 -262144 -1 -1 0 1
;
#X obj 48 109 route motion;
#X obj 48 318 s play;
#X text 146 63 poll mouse position;
#X text 201 110 motion data;
#X text 167 148 mouse x \, y coordinates;
#X floatatom 48 200 5 0 0 0 - - -;
#X floatatom 116 200 5 0 0 0 - - -;
#X obj 48 246 - 960;
#X obj 48 279 / 6;
#X text 82 27 <- turn on to poll mouse strokes;
#X connect 0 0 3 0;
#X connect 1 0 8 0;
#X connect 1 1 9 0;
#X connect 2 0 0 0;
#X connect 3 0 1 0;
#X connect 8 0 10 0;
#X connect 10 0 11 0;
#X connect 11 0 4 0;
#X restore 62 517 pd mouse;
#X obj 646 433 hsl 600 15 0 100 0 0 empty empty empty -2 -8 0 10 -262144
-1 -1 0 1;
#X obj 572 430 r pos;
#X obj 109 145 s pos;
#X connect 0 0 11 0;
#X connect 0 0 11 1;
#X connect 3 0 15 0;
#X connect 4 0 13 0;
#X connect 5 0 4 0;
#X connect 5 0 20 0;
#X connect 12 0 5 0;
#X connect 13 0 3 0;
#X connect 15 0 0 0;
#X connect 16 0 10 0;
#X connect 19 0 18 0;
