#N canvas 462 84 618 310 24;
#X declare -lib oscx;
#X obj 471 28 import oscx;
#X obj 18 20 cnv 15 400 40 empty empty OSC 20 12 0 24 -228992 -66577
0;
#X obj 43 108 dumpOSC 5001;
#X text 199 107 listen for osc messages at port 5001;
#X text 249 145 parse the message;
#N canvas 934 219 478 637 unwrap 0;
#N canvas 881 77 358 570 serialize 0;
#X obj 83 31 inlet;
#X obj 83 474 outlet;
#X obj 83 299 list split 1;
#X obj 83 216 until;
#X obj 83 254 list append;
#X obj 83 176 t b l;
#X obj 234 299 bang;
#X connect 0 0 5 0;
#X connect 2 0 1 0;
#X connect 2 1 4 1;
#X connect 2 2 6 0;
#X connect 3 0 4 0;
#X connect 4 0 2 0;
#X connect 5 0 3 0;
#X connect 5 1 4 1;
#X connect 6 0 3 1;
#X restore 163 226 pd serialize;
#X msg 322 221 0;
#X obj 163 269 t f b;
#X obj 163 176 t l b;
#N canvas 653 154 524 521 counter 0;
#X obj 149 100 inlet;
#X obj 188 248 f 0;
#X obj 247 247 + 1;
#X obj 303 97 inlet;
#X obj 188 384 outlet;
#X msg 218 197 0;
#X text 291 55 bang to reset;
#X text 103 54 bang to count;
#X text 160 419 output count;
#X connect 0 0 1 0;
#X connect 1 0 2 0;
#X connect 1 0 4 0;
#X connect 2 0 1 1;
#X connect 3 0 5 0;
#X connect 5 0 1 1;
#X restore 215 313 pd counter;
#X obj 163 354 pack 0 0;
#X obj 163 66 inlet;
#X obj 163 537 outlet;
#X obj 299 152 print;
#X connect 0 0 2 0;
#X connect 1 0 4 1;
#X connect 2 0 5 0;
#X connect 2 1 4 0;
#X connect 3 0 0 0;
#X connect 3 1 1 0;
#X connect 4 0 5 1;
#X connect 5 0 7 0;
#X connect 6 0 3 0;
#X restore 43 191 pd unwrap;
#X text 95 18 make sure this patch is open;
#X text 93 34 before running processing sketch;
#X text 161 188 unwrap data into a stream of events;
#X text 144 231 synthesize music!;
#X obj 43 149 OSCroute /lifepd;
#N canvas 566 457 561 377 sound 1;
#X obj 58 40 inlet;
#X floatatom 353 84 5 0 0 0 - - -;
#X obj 353 231 tabread~ life;
#N canvas 0 22 450 278 (subpatch) 0;
#X array life 25 float 1;
#A 0 0 0 0 0 0 0 0 0 0 0 0 0 0 0 0 0 0 0 0 0 0 0 0 0 0;
#X coords 0 1 24 -1 200 140 1 0 0;
#X restore 57 185 graph;
#X obj 353 129 phasor~ 0.2;
#X obj 58 122 tabwrite life;
#X obj 340 289 dac~;
#X obj 58 80 unpack 0 0;
#X obj 353 182 *~ 25;
#X text 320 41 0.333 \, 1 \, 3 \, 29;
#X connect 0 0 7 0;
#X connect 1 0 4 0;
#X connect 2 0 6 1;
#X connect 2 0 6 0;
#X connect 4 0 8 0;
#X connect 7 0 5 0;
#X connect 7 1 5 1;
#X connect 8 0 2 0;
#X restore 43 232 pd sound;
#X connect 2 0 10 0;
#X connect 5 0 11 0;
#X connect 10 0 5 0;
