#N canvas 637 83 731 574 24;
#X floatatom 243 261 5 0 1 0 - - -;
#X obj 76 299 output~;
#X obj 169 431 send~ feedback;
#X obj 169 203 receive~ feedback;
#X obj 169 299 *~ 0.99;
#X obj 36 32 cnv 15 400 40 empty empty Feedback 20 12 0 24 -228992
-66577 0;
#X text 180 463 feedback out;
#X text 83 342 dac~;
#X text 196 167 feedback in;
#X text 309 260 <-- feedback gain;
#X text 38 83 digital feedback using send~ / receive~;
#X obj 282 369 line~;
#X text 500 370 initial signal;
#X msg 282 324 0 \, 1 1;
#X obj 392 338 bng 15 250 50 0 empty empty empty 17 7 0 10 -262144
-1 -1;
#N canvas 894 242 497 609 noise 0;
#X obj 139 121 noise~;
#X obj 241 332 line~;
#X obj 139 390 *~;
#X msg 241 246 0 \, 1 1;
#X msg 333 270 0 10;
#X obj 333 232 delay 30;
#X obj 241 189 t b b;
#X obj 241 120 inlet;
#X obj 139 454 outlet~;
#X connect 0 0 2 0;
#X connect 1 0 2 1;
#X connect 2 0 8 0;
#X connect 3 0 1 0;
#X connect 4 0 1 0;
#X connect 5 0 4 0;
#X connect 6 0 3 0;
#X connect 6 1 5 0;
#X connect 7 0 6 0;
#X restore 392 369 pd noise;
#X obj 443 327 metro 333;
#X obj 443 301 tgl 15 0 empty empty empty 17 7 0 10 -262144 -1 -1 0
1;
#X floatatom 539 292 5 0 0 0 - - -;
#X connect 0 0 4 1;
#X connect 3 0 4 0;
#X connect 3 0 1 1;
#X connect 3 0 1 0;
#X connect 4 0 2 0;
#X connect 11 0 2 0;
#X connect 13 0 11 0;
#X connect 14 0 15 0;
#X connect 15 0 2 0;
#X connect 16 0 14 0;
#X connect 17 0 16 0;
#X connect 18 0 16 1;
