#N canvas 283 26 1452 929 12;
#X msg 137 27 open some_awesome_song.aiff;
#X msg 81 26 start;
#X msg 31 26 stop;
#X obj 275 380 env~;
#X obj 275 147 +~;
#X obj 275 286 lop~ 75;
#X obj 34 256 dac~;
#X obj 22 222 *~ 0.2;
#X obj 74 221 *~ 0.2;
#X floatatom 87 181 5 0 1 0 - - -;
#X obj 275 608 change;
#X obj 275 635 sel 1;
#X obj 275 834 makenote 100 250;
#X obj 275 864 noteout 10;
#X obj 31 91 readsf~ 2;
#X obj 202 416 vsl 15 128 0 127 0 0 empty empty empty 0 -9 0 10 -262144
-1 -1 0 1;
#X obj 252 669 bng 15 250 50 0 empty empty empty 17 7 0 10 -262144
-1 -1;
#X floatatom 232 415 5 0 0 0 - - -;
#X obj 355 381 fiddle~;
#X obj 355 456 makenote 100 250;
#X obj 355 486 noteout 1;
#X floatatom 400 419 5 0 0 0 - - -;
#X obj 483 486 pgmout 1;
#X floatatom 483 455 5 0 0 0 - - -;
#X obj 275 802 + 27;
#X floatatom 300 552 5 0 0 0 - - -;
#X text 341 551 <- drum trigger threshold;
#X text 128 179 <- output level;
#X text 283 742 random percussion note;
#X text 135 376 amplitude tracking;
#X text 423 378 pitch tracking;
#X obj 699 382 env~;
#X obj 699 610 change;
#X obj 699 637 sel 1;
#X obj 699 836 makenote 100 250;
#X obj 699 866 noteout 10;
#X obj 626 418 vsl 15 128 0 127 0 0 empty empty empty 0 -9 0 10 -262144
-1 -1 0 1;
#X obj 676 671 bng 15 250 50 0 empty empty empty 17 7 0 10 -262144
-1 -1;
#X floatatom 656 417 5 0 0 0 - - -;
#X obj 779 383 fiddle~;
#X obj 779 458 makenote 100 250;
#X floatatom 793 423 5 0 0 0 - - -;
#X floatatom 907 457 5 0 0 0 - - -;
#X floatatom 724 554 5 0 0 0 - - -;
#X obj 699 288 bp~ 700 1;
#X text 776 287 bandpass filter;
#X text 337 285 lowpass filter;
#X text 309 144 sum to mono;
#X obj 907 488 pgmout 2;
#X obj 779 488 noteout 2;
#X obj 275 582 > 85;
#X obj 355 418 - 12;
#X obj 1119 380 env~;
#X obj 1119 608 change;
#X obj 1119 635 sel 1;
#X obj 1119 834 makenote 100 250;
#X obj 1119 864 noteout 10;
#X obj 1046 416 vsl 15 128 0 127 0 0 empty empty empty 0 -9 0 10 -262144
-1 -1 0 1;
#X obj 1096 669 bng 15 250 50 0 empty empty empty 17 7 0 10 -262144
-1 -1;
#X floatatom 1076 415 5 0 0 0 - - -;
#X obj 1199 381 fiddle~;
#X obj 1199 456 makenote 100 250;
#X floatatom 1213 421 5 0 0 0 - - -;
#X floatatom 1327 455 5 0 0 0 - - -;
#X floatatom 1144 552 5 0 0 0 - - -;
#X obj 1119 286 hip~ 4000;
#X text 1197 285 highpass filter;
#X text 1234 402;
#X obj 1327 486 pgmout 3;
#X obj 1199 486 noteout 3;
#X obj 699 584 > 90;
#X obj 1119 582 > 80;
#X obj 275 771 random 20;
#X obj 699 773 random 20;
#X obj 1119 771 random 20;
#X obj 699 804 + 47;
#X obj 1119 802 + 67;
#X connect 0 0 14 0;
#X connect 1 0 14 0;
#X connect 2 0 14 0;
#X connect 3 0 15 0;
#X connect 3 0 17 0;
#X connect 3 0 50 0;
#X connect 4 0 5 0;
#X connect 4 0 44 0;
#X connect 4 0 65 0;
#X connect 5 0 3 0;
#X connect 5 0 18 0;
#X connect 7 0 6 0;
#X connect 8 0 6 1;
#X connect 9 0 8 1;
#X connect 9 0 7 1;
#X connect 10 0 11 0;
#X connect 11 0 16 0;
#X connect 11 0 72 0;
#X connect 12 0 13 0;
#X connect 12 1 13 1;
#X connect 14 0 4 0;
#X connect 14 0 7 0;
#X connect 14 1 4 1;
#X connect 14 1 8 0;
#X connect 18 0 21 0;
#X connect 18 0 51 0;
#X connect 19 0 20 0;
#X connect 19 1 20 1;
#X connect 23 0 22 0;
#X connect 24 0 12 0;
#X connect 25 0 50 1;
#X connect 31 0 36 0;
#X connect 31 0 38 0;
#X connect 31 0 70 0;
#X connect 32 0 33 0;
#X connect 33 0 37 0;
#X connect 33 0 73 0;
#X connect 34 0 35 0;
#X connect 34 1 35 1;
#X connect 39 0 40 0;
#X connect 39 0 41 0;
#X connect 40 0 49 0;
#X connect 40 1 49 1;
#X connect 42 0 48 0;
#X connect 43 0 70 1;
#X connect 44 0 31 0;
#X connect 44 0 39 0;
#X connect 50 0 10 0;
#X connect 51 0 19 0;
#X connect 52 0 57 0;
#X connect 52 0 59 0;
#X connect 52 0 71 0;
#X connect 53 0 54 0;
#X connect 54 0 58 0;
#X connect 54 0 74 0;
#X connect 55 0 56 0;
#X connect 55 1 56 1;
#X connect 60 0 61 0;
#X connect 60 0 62 0;
#X connect 61 0 69 0;
#X connect 61 1 69 1;
#X connect 63 0 68 0;
#X connect 64 0 71 1;
#X connect 65 0 52 0;
#X connect 65 0 60 0;
#X connect 70 0 32 0;
#X connect 71 0 53 0;
#X connect 72 0 24 0;
#X connect 73 0 75 0;
#X connect 74 0 76 0;
#X connect 75 0 34 0;
#X connect 76 0 55 0;
