#N canvas 159 96 1296 900 24;
#X floatatom 231 486 5 0 0 0 - #0-carr -;
#X floatatom 168 152 5 0 0 0 - #0-mod -;
#X obj 73 43 cnv 15 400 40 empty empty Frequency_Modulation 20 12 0
24 -228992 -66577 0;
#X obj 168 531 +~ 100;
#X text 343 365 index;
#X text 298 484 carrier frequency;
#X text 241 152 modulator frequency;
#X obj 168 415 *~ 0;
#X obj 233 668 line~;
#X obj 168 671 *~;
#X obj 280 413 *;
#X obj 168 330 osc~ 10;
#X obj 168 569 osc~;
#X obj 168 784 outlet~;
#X obj 233 631 r \$0-amp-env;
#X obj 280 326 r \$0-index-env;
#X obj 280 364 line;
#X obj 168 202 t f f f;
#X msg 652 173 100 100 6 0 266;
#X obj 594 285 s \$0-mod;
#X obj 629 336 s \$0-carr;
#X obj 751 314 pack 0 0 0;
#X obj 621 222 unpack 0 0 0 0 0;
#X msg 753 350 \$1 \, \$2 \$3;
#X obj 754 389 s \$0-index-env;
#X obj 621 112 inlet;
#X text 696 106 mod freq \, carr freq \, index envelope (start \, end
\, dur);
#X msg 950 315 1 \, 0 \$1;
#X obj 952 357 s \$0-amp-env;
#X connect 0 0 3 1;
#X connect 1 0 17 0;
#X connect 3 0 12 0;
#X connect 7 0 3 0;
#X connect 8 0 9 1;
#X connect 9 0 13 0;
#X connect 10 0 7 1;
#X connect 11 0 7 0;
#X connect 12 0 9 0;
#X connect 14 0 8 0;
#X connect 15 0 16 0;
#X connect 16 0 10 0;
#X connect 17 0 11 0;
#X connect 17 2 10 1;
#X connect 18 0 22 0;
#X connect 21 0 23 0;
#X connect 22 0 19 0;
#X connect 22 1 20 0;
#X connect 22 2 21 0;
#X connect 22 3 21 1;
#X connect 22 4 21 2;
#X connect 22 4 27 0;
#X connect 23 0 24 0;
#X connect 25 0 22 0;
#X connect 27 0 28 0;
