#N canvas 617 316 544 456 24;
#N canvas 0 22 450 300 (subpatch) 0;
#X array \$0-spectrum 512 float 0;
#X coords 0 1 511 -1 512 400 1 0 0;
#X restore 17 32 graph;
#N canvas 1323 283 637 585 spectrogram 0;
#X obj 54 34 inlet~;
#X obj 54 250 rfft~;
#X obj 54 296 *~;
#X obj 106 296 *~;
#X obj 54 340 sqrt~;
#X obj 54 508 tabwrite~ \$0-spectrum;
#X obj 438 509 block~ 4096 1;
#X obj 54 164 hip~ 5;
#X obj 54 383 biquad~ 0 0 0 0 1;
#X obj 54 426 -~ 0.999;
#X obj 54 466 clip~ -1 1;
#X obj 54 206 *~ 0.0065;
#X obj 214 464 bang~;
#X connect 0 0 7 0;
#X connect 1 0 2 0;
#X connect 1 0 2 1;
#X connect 1 1 3 0;
#X connect 1 1 3 1;
#X connect 2 0 4 0;
#X connect 3 0 4 0;
#X connect 4 0 8 0;
#X connect 7 0 11 0;
#X connect 8 0 9 0;
#X connect 9 0 10 0;
#X connect 10 0 5 0;
#X connect 11 0 1 0;
#X connect 12 0 5 0;
#X restore 551 406 pd spectrogram;
#X obj 551 362 catch~ spec;
#X connect 2 0 1 0;
