#N canvas 549 62 573 409 24;
#X obj 191 238 osc~;
#X obj 192 296 dac~;
#X floatatom 191 187 10 0 0 0 - - -;
#X msg 216 82 0 100;
#X obj 190 129 line 0 10;
#X msg 186 43 44100 10000;
#X connect 0 0 1 0;
#X connect 0 0 1 1;
#X connect 2 0 0 0;
#X connect 3 0 4 0;
#X connect 4 0 2 0;
#X connect 5 0 4 0;
