#N canvas 659 206 747 560 24;
#X obj 101 287 dac~;
#X obj 121 148 cycle~ 440;
#X floatatom 121 90 5 0 0 0 - - -;
#X msg 206 89 440;
#X msg 256 89 550;
#X msg 311 89 700;
#X obj 247 237 vline~;
#X obj 247 371 snapshot~;
#X floatatom 247 415 5 0 0 0 - - -;
#X obj 259 327 metro 100;
#X obj 121 229 *~;
#X obj 261 281 loadbang;
#X msg 274 184 0 0 \, 1 500 0 \, 1 500 1000 \, 0 300 1500;
#X connect 1 0 10 0;
#X connect 2 0 1 0;
#X connect 3 0 1 0;
#X connect 4 0 1 0;
#X connect 5 0 1 0;
#X connect 6 0 7 0;
#X connect 6 0 10 1;
#X connect 7 0 8 0;
#X connect 9 0 7 0;
#X connect 10 0 0 0;
#X connect 10 0 0 1;
#X connect 11 0 9 0;
#X connect 12 0 6 0;
